<svg xmlns="http://www.w3.org/2000/svg" width="118" height="148" viewBox="0 0 118 148" fill="none">
  <rect x="0.834961" y="0.40918" width="107.16" height="147.276" fill="#181819"/>
  <rect x="105.554" y="0.40918" width="12.4464" height="147.276" fill="#212121"/>
  <path d="M68.0041 50.1552C68.0041 44.6644 72.0251 40.2096 76.9922 40.2096" stroke="#4E4E4E" stroke-width="2" stroke-miterlimit="10"/>
  <path d="M68.0041 30.2685C68.0041 35.7592 72.0251 40.214 76.9922 40.214M25.374 40.214L74.9306 40.214" stroke="#4E4E4E" stroke-width="2" stroke-miterlimit="10"/>
  <path d="M68.0043 83.99C68.0043 78.4992 72.0253 74.0445 76.9924 74.0445" stroke="#4E4E4E" stroke-width="2" stroke-miterlimit="10"/>
  <path d="M68.0048 64.103C68.0048 69.5937 72.0258 74.0485 76.9929 74.0485M25.3747 74.0485L74.9313 74.0485" stroke="#4E4E4E" stroke-width="2" stroke-miterlimit="10"/>
  <path d="M68.0036 117.824C68.0036 112.333 72.0246 107.879 76.9917 107.879" stroke="#4E4E4E" stroke-width="2" stroke-miterlimit="10"/>
  <path d="M68.0041 97.9373C68.0041 103.428 72.0251 107.883 76.9922 107.883M25.374 107.883L74.9306 107.883" stroke="#4E4E4E" stroke-width="2" stroke-miterlimit="10"/>
</svg>