<svg xmlns="http://www.w3.org/2000/svg" width="237" height="148" viewBox="0 0 237 148" fill="none">
  <rect x="8.29053" y="0.409058" width="227.911" height="147.276" fill="#171717"/>
  <rect x="-2.7251" y="0.40918" width="11.0161" height="147.276" fill="#212121"/>
  <path fill-rule="evenodd" clip-rule="evenodd" d="M52.4516 33.4495C53.5478 32.6508 53.5478 31.0156 52.4516 30.2168L28.6765 12.8925C27.8194 12.2679 27.5988 11.0828 28.1739 10.1917L28.8381 9.16229C29.4612 8.19678 30.7678 7.9536 31.6965 8.63031L61.3207 30.2168C62.417 31.0156 62.417 32.6508 61.3207 33.4496L35.3325 52.3863C34.2226 53.1951 34.2393 54.8562 35.3653 55.6425L61.3416 73.7821C62.496 74.5882 62.4782 76.303 61.3074 77.085L35.5181 94.311C34.3616 95.0835 34.3271 96.7715 35.4512 97.5905L61.3558 116.467C62.4799 117.286 62.4454 118.974 61.2888 119.746L31.6589 139.538C30.7046 140.175 29.4108 139.88 28.8266 138.893L28.1969 137.828C27.6561 136.914 27.9242 135.737 28.8074 135.147L52.1538 119.552C53.3104 118.78 53.3448 117.092 52.2208 116.273L26.3161 97.3968C25.1921 96.5777 25.2265 94.8898 26.3831 94.1173L52.0316 76.9853C53.2023 76.2033 53.2201 74.4886 52.0658 73.6825L26.3669 55.7366C25.2409 54.9503 25.2242 53.2892 26.3341 52.4804L52.4516 33.4495Z" fill="#19181A" stroke="#B2B2B2" stroke-opacity="0.26" stroke-width="0.5"/>
  <path fill-rule="evenodd" clip-rule="evenodd" d="M80.0634 33.4494C81.1596 32.6506 81.1596 31.0154 80.0634 30.2166L56.2884 12.8924C55.4312 12.2678 55.2106 11.0827 55.7857 10.1916L56.45 9.16217C57.073 8.19665 58.3796 7.95348 59.3083 8.63019L88.9326 30.2167C90.0288 31.0155 90.0288 32.6507 88.9326 33.4494L62.9444 52.3862C61.8344 53.1949 61.8511 54.8561 62.9771 55.6423L88.9535 73.782C90.1078 74.5881 90.09 76.3028 88.9193 77.0849L63.1299 94.3109C61.9734 95.0834 61.9389 96.7713 63.063 97.5904L88.9676 116.466C90.0917 117.286 90.0572 118.973 88.9007 119.746L59.2707 139.537C58.3164 140.175 57.0227 139.88 56.4384 138.893L55.8087 137.828C55.268 136.914 55.536 135.736 56.4192 135.147L79.7657 119.552C80.9222 118.78 80.9567 117.092 79.8326 116.273L53.928 97.3967C52.8039 96.5776 52.8384 94.8897 53.9949 94.1172L79.6434 76.9852C80.8142 76.2032 80.8319 74.4884 79.6776 73.6823L53.9787 55.7365C52.8527 54.9502 52.836 53.2891 53.946 52.4803L80.0634 33.4494Z" fill="#19181A" stroke="#B2B2B2" stroke-opacity="0.26" stroke-width="0.5"/>
  <path fill-rule="evenodd" clip-rule="evenodd" d="M107.676 33.4494C108.772 32.6506 108.772 31.0154 107.676 30.2166L83.9012 12.8924C83.044 12.2678 82.8234 11.0827 83.3985 10.1916L84.0627 9.16217C84.6858 8.19665 85.9924 7.95348 86.9211 8.63019L116.545 30.2167C117.642 31.0155 117.642 32.6507 116.545 33.4494L90.5571 52.3862C89.4472 53.1949 89.4639 54.8561 90.5899 55.6423L116.566 73.782C117.721 74.5881 117.703 76.3028 116.532 77.0849L90.7427 94.3109C89.5862 95.0834 89.5517 96.7713 90.6758 97.5904L116.58 116.466C117.704 117.286 117.67 118.973 116.513 119.746L86.8835 139.537C85.9292 140.175 84.6354 139.88 84.0512 138.893L83.4215 137.828C82.8808 136.914 83.1488 135.736 84.032 135.147L107.378 119.552C108.535 118.78 108.569 117.092 107.445 116.273L81.5408 97.3967C80.4167 96.5776 80.4511 94.8897 81.6077 94.1172L107.256 76.9852C108.427 76.2032 108.445 74.4884 107.29 73.6823L81.5915 55.7365C80.4655 54.9502 80.4488 53.2891 81.5588 52.4803L107.676 33.4494Z" fill="#19181A" stroke="#B2B2B2" stroke-opacity="0.26" stroke-width="0.5"/>
  <path fill-rule="evenodd" clip-rule="evenodd" d="M135.288 33.4494C136.384 32.6506 136.384 31.0154 135.288 30.2166L111.513 12.8924C110.656 12.2678 110.435 11.0827 111.01 10.1916L111.675 9.16217C112.298 8.19665 113.604 7.95348 114.533 8.63019L144.157 30.2167C145.253 31.0155 145.253 32.6507 144.157 33.4494L118.169 52.3862C117.059 53.1949 117.076 54.8561 118.202 55.6423L144.178 73.782C145.332 74.5881 145.315 76.3028 144.144 77.0849L118.355 94.3109C117.198 95.0834 117.164 96.7713 118.288 97.5904L144.192 116.466C145.316 117.286 145.282 118.973 144.125 119.746L114.495 139.537C113.541 140.175 112.247 139.88 111.663 138.893L111.033 137.828C110.493 136.914 110.761 135.736 111.644 135.147L134.99 119.552C136.147 118.78 136.181 117.092 135.057 116.273L109.153 97.3967C108.029 96.5776 108.063 94.8897 109.22 94.1172L134.868 76.9852C136.039 76.2032 136.057 74.4884 134.902 73.6823L109.203 55.7365C108.077 54.9502 108.061 53.2891 109.171 52.4803L135.288 33.4494Z" fill="#19181A" stroke="#B2B2B2" stroke-opacity="0.26" stroke-width="0.5"/>
  <path fill-rule="evenodd" clip-rule="evenodd" d="M162.9 33.4494C163.997 32.6506 163.997 31.0154 162.9 30.2166L139.125 12.8924C138.268 12.2678 138.048 11.0827 138.623 10.1916L139.287 9.16217C139.91 8.19665 141.217 7.95348 142.145 8.63019L171.769 30.2167C172.866 31.0155 172.866 32.6507 171.769 33.4494L145.781 52.3862C144.671 53.1949 144.688 54.8561 145.814 55.6423L171.79 73.782C172.945 74.5881 172.927 76.3028 171.756 77.0849L145.967 94.3109C144.81 95.0834 144.776 96.7713 145.9 97.5904L171.805 116.466C172.929 117.286 172.894 118.973 171.738 119.746L142.108 139.537C141.153 140.175 139.86 139.88 139.275 138.893L138.646 137.828C138.105 136.914 138.373 135.736 139.256 135.147L162.603 119.552C163.759 118.78 163.794 117.092 162.67 116.273L136.765 97.3967C135.641 96.5776 135.675 94.8897 136.832 94.1172L162.48 76.9852C163.651 76.2032 163.669 74.4884 162.514 73.6823L136.816 55.7365C135.69 54.9502 135.673 53.2891 136.783 52.4803L162.9 33.4494Z" fill="#19181A" stroke="#B2B2B2" stroke-opacity="0.26" stroke-width="0.5"/>
</svg>