<svg width="56" height="67" viewBox="0 0 56 67" fill="none" xmlns="http://www.w3.org/2000/svg">
<g clip-path="url(#clip0_1_469)">
<path d="M18.4681 28.4568C18.4681 28.0567 18.677 27.6884 19.013 27.4899L19.0132 27.4902L51.4483 8.34963C52.168 7.92546 53.0826 8.44923 53.0826 9.31729V36.2889C53.0826 36.6944 52.8684 37.0659 52.5261 37.2622L52.526 37.2623L20.0908 55.8955L20.0907 55.8955C19.3714 56.3089 18.4681 55.7834 18.4681 54.9221V28.4568Z" fill="#131313" stroke="#777777" stroke-width="0.5"/>
<path d="M43.9668 4.12288L0.700012 29.2848V59.6936L12.8362 66.2866V35.2048L23.7846 28.8809L19.8264 26.8627L51.7488 7.89002L43.9668 4.12288Z" fill="#131313" stroke="#777777" stroke-width="0.5" stroke-miterlimit="10"/>
<path d="M0.700012 29.2848L12.0548 35.8267" stroke="#777777" stroke-width="0.5" stroke-miterlimit="10"/>
<path d="M23.9247 59.8496L13.1387 66.1115C12.4566 66.507 11.611 66.0055 11.611 65.2049V37.1157C11.611 36.3723 12.0034 35.6861 12.6376 35.3191L23.2987 29.1609C23.9854 28.7642 24.8357 29.2777 24.8252 30.083L24.4421 58.9573C24.4374 59.3266 24.2401 59.6662 23.9259 59.8496H23.9247Z" fill="#131313" stroke="#777777" stroke-width="0.5" stroke-miterlimit="10"/>
<path d="M51.9836 23.515L46.1753 20.0016C41.3937 17.1863 33.7332 21.5921 29.0625 29.8424C24.393 38.0927 24.483 47.0637 29.2634 49.8802L34.344 52.8634L51.9824 23.5161L51.9836 23.515Z" fill="#131313" stroke="#777777" stroke-width="0.5" stroke-miterlimit="10"/>
<path d="M41.0971 2.07014L38.426 0.455826L19.2331 11.8597V21.6481L21.8061 23.2624" fill="#131313"/>
<path d="M41.0971 2.07014L38.426 0.455826L19.2331 11.8597V21.6481L21.8061 23.2624" stroke="#777777" stroke-width="0.5" stroke-miterlimit="10"/>
<path d="M19.2331 11.8597L21.8061 13.3727" stroke="#777777" stroke-width="0.5" stroke-miterlimit="10"/>
<path d="M21.8061 23.2624L41.0971 12.061V2.07013L21.8061 13.3727V23.2624Z" fill="#131313" stroke="#777777" stroke-width="0.5" stroke-miterlimit="10"/>
<path d="M18.2181 27.7849V29.9508C18.2181 31.3888 16.1917 32.5551 13.6911 32.5551C11.1905 32.5551 9.16415 31.3888 9.16415 29.9508V27.7849H18.2181Z" fill="#131313" stroke="#777777" stroke-width="0.5" stroke-miterlimit="10"/>
<path d="M13.6899 30.3892C16.1901 30.3892 18.2169 29.2232 18.2169 27.7849C18.2169 26.3465 16.1901 25.1805 13.6899 25.1805C11.1898 25.1805 9.16296 26.3465 9.16296 27.7849C9.16296 29.2232 11.1898 30.3892 13.6899 30.3892Z" fill="#131313" stroke="#777777" stroke-width="0.5" stroke-miterlimit="10"/>
<path d="M52.2519 43.5346C56.911 35.3029 56.6508 26.2521 51.6707 23.3192C46.6906 20.3862 38.8764 24.6818 34.2173 32.9135C29.5581 41.1452 29.8183 50.196 34.7985 53.1289C39.7786 56.0619 47.5927 51.7664 52.2519 43.5346Z" fill="#131313" stroke="#777777" stroke-width="0.5" stroke-miterlimit="10"/>
<path d="M49.921 42.058C53.3352 36.0258 53.1291 29.3844 49.4606 27.2239C45.7921 25.0634 40.0505 28.202 36.6363 34.2342C33.222 40.2664 33.4282 46.9079 37.0966 49.0684C40.7651 51.2289 46.5068 48.0902 49.921 42.058Z" fill="#131313" stroke="#777777" stroke-width="0.5" stroke-miterlimit="10"/>
<path d="M25.2679 19.4595L37.6341 12.2791V5.87421L25.2679 13.119V19.4595Z" fill="#3A3A3A" stroke="#777777" stroke-width="0.5" stroke-miterlimit="10"/>
<path d="M25.2679 18.9555L36.7768 12.3077V6.37697L25.2679 13.0856V18.9555Z" fill="#121212" stroke="#777777" stroke-width="0.5" stroke-miterlimit="10"/>
<path d="M36.7769 12.3077L37.6341 12.2791" stroke="#777777" stroke-width="0.5" stroke-miterlimit="10"/>
</g>
<defs>
<clipPath id="clip0_1_469">
<rect width="55" height="66" fill="white" transform="translate(0.641602 0.386719)"/>
</clipPath>
</defs>
</svg>
