<svg width="1775" height="151" viewBox="0 0 1775 151" fill="none" xmlns="http://www.w3.org/2000/svg">
<rect x="11.7412" y="0.182617" width="233.237" height="150.718" fill="#FFF6DF"/>
<rect x="0.467773" y="0.182617" width="11.2735" height="150.718" fill="#9747FF"/>
<path fill-rule="evenodd" clip-rule="evenodd" d="M80.6776 33.9574C81.7738 33.1586 81.7738 31.5234 80.6776 30.7246L56.2594 12.9317C55.4023 12.3072 55.1817 11.1221 55.7567 10.2309L56.4873 9.09881C57.1103 8.1333 58.4169 7.89012 59.3456 8.56683L89.754 30.7247C90.8502 31.5235 90.8502 33.1587 89.754 33.9575L63.0537 53.4131C61.9438 54.2218 61.9605 55.883 63.0864 56.6692L89.7797 75.3095C90.934 76.1156 90.9162 77.8303 89.7455 78.6124L63.2409 96.3162C62.0843 97.0887 62.0498 98.7766 63.1739 99.5957L89.7922 118.992C90.9162 119.811 90.8818 121.499 89.7252 122.271L59.3061 142.59C58.3518 143.227 57.058 142.933 56.4738 141.945L55.7817 140.775C55.241 139.861 55.509 138.683 56.3922 138.093L80.3767 122.073C81.5333 121.3 81.5677 119.613 80.4437 118.793L53.8254 99.3974C52.7014 98.5783 52.7358 96.8904 53.8924 96.1179L80.2528 78.5104C81.4236 77.7283 81.4413 76.0136 80.287 75.2075L53.8778 56.7656C52.7518 55.9793 52.7351 54.3182 53.845 53.5094L80.6776 33.9574Z" fill="#FFF6DF" stroke="black" stroke-opacity="0.26" stroke-width="0.5"/>
<path fill-rule="evenodd" clip-rule="evenodd" d="M108.935 33.9574C110.031 33.1586 110.031 31.5234 108.935 30.7246L84.5167 12.9317C83.6596 12.3072 83.439 11.1221 84.0141 10.2309L84.7446 9.09881C85.3677 8.1333 86.6743 7.89012 87.6029 8.56683L118.011 30.7247C119.108 31.5235 119.108 33.1587 118.011 33.9575L91.311 53.4131C90.2011 54.2218 90.2178 55.883 91.3438 56.6692L118.037 75.3095C119.191 76.1156 119.174 77.8303 118.003 78.6124L91.4982 96.3162C90.3416 97.0887 90.3072 98.7766 91.4312 99.5957L118.049 118.992C119.174 119.811 119.139 121.499 117.983 122.271L87.5634 142.59C86.6091 143.227 85.3154 142.933 84.7311 141.945L84.039 140.775C83.4983 139.861 83.7664 138.683 84.6495 138.093L108.634 122.073C109.791 121.3 109.825 119.613 108.701 118.793L82.0827 99.3974C80.9587 98.5783 80.9931 96.8904 82.1497 96.1179L108.51 78.5104C109.681 77.7283 109.699 76.0136 108.544 75.2075L82.1351 56.7656C81.0091 55.9793 80.9924 54.3182 82.1023 53.5094L108.935 33.9574Z" fill="#FFF6DF" stroke="black" stroke-opacity="0.26" stroke-width="0.5"/>
<path fill-rule="evenodd" clip-rule="evenodd" d="M137.193 33.9574C138.289 33.1586 138.289 31.5234 137.193 30.7246L112.775 12.9317C111.917 12.3072 111.697 11.1221 112.272 10.2309L113.002 9.09881C113.625 8.1333 114.932 7.89012 115.861 8.56683L146.269 30.7247C147.365 31.5235 147.365 33.1587 146.269 33.9575L119.569 53.4131C118.459 54.2218 118.476 55.883 119.602 56.6692L146.295 75.3095C147.449 76.1156 147.431 77.8303 146.261 78.6124L119.756 96.3162C118.599 97.0887 118.565 98.7766 119.689 99.5957L146.307 118.992C147.431 119.811 147.397 121.499 146.24 122.271L115.821 142.59C114.867 143.227 113.573 142.933 112.989 141.945L112.297 140.775C111.756 139.861 112.024 138.683 112.907 138.093L136.892 122.073C138.048 121.3 138.083 119.613 136.959 118.793L110.341 99.3974C109.216 98.5783 109.251 96.8904 110.408 96.1179L136.768 78.5104C137.939 77.7283 137.956 76.0136 136.802 75.2075L110.393 56.7656C109.267 55.9793 109.25 54.3182 110.36 53.5094L137.193 33.9574Z" fill="#FFF6DF" stroke="black" stroke-opacity="0.26" stroke-width="0.5"/>
<path fill-rule="evenodd" clip-rule="evenodd" d="M165.45 33.9574C166.546 33.1586 166.546 31.5234 165.45 30.7246L141.032 12.9317C140.175 12.3072 139.954 11.1221 140.529 10.2309L141.26 9.09881C141.883 8.1333 143.189 7.89012 144.118 8.56683L174.526 30.7247C175.623 31.5235 175.623 33.1587 174.526 33.9575L147.826 53.4131C146.716 54.2218 146.733 55.883 147.859 56.6692L174.552 75.3095C175.706 76.1156 175.689 77.8303 174.518 78.6124L148.013 96.3162C146.857 97.0887 146.822 98.7766 147.946 99.5957L174.565 118.992C175.689 119.811 175.654 121.499 174.498 122.271L144.079 142.59C143.124 143.227 141.83 142.933 141.246 141.945L140.554 140.775C140.013 139.861 140.281 138.683 141.165 138.093L165.149 122.073C166.306 121.3 166.34 119.613 165.216 118.793L138.598 99.3974C137.474 98.5783 137.508 96.8904 138.665 96.1179L165.025 78.5104C166.196 77.7283 166.214 76.0136 165.059 75.2075L138.65 56.7656C137.524 55.9793 137.508 54.3182 138.617 53.5094L165.45 33.9574Z" fill="#FFF6DF" stroke="black" stroke-opacity="0.26" stroke-width="0.5"/>
<path fill-rule="evenodd" clip-rule="evenodd" d="M193.708 33.9574C194.804 33.1586 194.804 31.5234 193.708 30.7246L169.29 12.9317C168.433 12.3072 168.212 11.1221 168.787 10.2309L169.518 9.09881C170.141 8.1333 171.447 7.89012 172.376 8.56683L202.784 30.7247C203.881 31.5235 203.881 33.1587 202.784 33.9575L176.084 53.4131C174.974 54.2218 174.991 55.883 176.117 56.6692L202.81 75.3095C203.964 76.1156 203.947 77.8303 202.776 78.6124L176.271 96.3162C175.115 97.0887 175.08 98.7766 176.204 99.5957L202.822 118.992C203.946 119.811 203.912 121.499 202.755 122.271L172.336 142.59C171.382 143.227 170.088 142.933 169.504 141.945L168.812 140.775C168.271 139.861 168.539 138.683 169.422 138.093L193.407 122.073C194.564 121.3 194.598 119.613 193.474 118.793L166.856 99.3974C165.732 98.5783 165.766 96.8904 166.923 96.1179L193.283 78.5104C194.454 77.7283 194.472 76.0136 193.317 75.2075L166.908 56.7656C165.782 55.9793 165.765 54.3182 166.875 53.5094L193.708 33.9574Z" fill="#FFF6DF" stroke="black" stroke-opacity="0.26" stroke-width="0.5"/>
<path d="M28.869 119.832L22.0165 124.169L22.0165 121.469L26.4822 118.72V118.491L22.0165 115.742L22.0165 113.042L28.869 117.378H32.7957V119.832H28.869Z" fill="#7A7566"/>
<path d="M33.1037 106.572C33.1037 107.477 32.9549 108.312 32.6572 109.075C32.3594 109.839 31.9539 110.504 31.4406 111.072C30.9273 111.639 30.3268 112.081 29.639 112.397C28.9409 112.713 28.1966 112.872 27.4061 112.872C26.6156 112.872 25.8765 112.713 25.1887 112.397C24.4906 112.081 23.8849 111.639 23.3716 111.072C22.8583 110.504 22.4528 109.839 22.1551 109.075C21.8574 108.312 21.7085 107.477 21.7085 106.572C21.7085 105.677 21.8574 104.848 22.1551 104.084C22.4528 103.31 22.8583 102.639 23.3716 102.072C23.8849 101.504 24.4906 101.062 25.1887 100.746C25.8765 100.43 26.6156 100.272 27.4061 100.272C28.1966 100.272 28.9409 100.43 29.639 100.746C30.3268 101.062 30.9273 101.504 31.4406 102.072C31.9539 102.639 32.3594 103.31 32.6572 104.084C32.9549 104.848 33.1037 105.677 33.1037 106.572ZM30.9479 106.572C30.9479 106.037 30.8606 105.546 30.6861 105.099C30.5116 104.652 30.2703 104.264 29.9623 103.937C29.6441 103.61 29.2694 103.353 28.8382 103.168C28.407 102.982 27.9297 102.89 27.4061 102.89C26.8825 102.89 26.4052 102.982 25.974 103.168C25.5428 103.353 25.1733 103.61 24.8653 103.937C24.547 104.264 24.3007 104.652 24.1261 105.099C23.9516 105.546 23.8644 106.037 23.8644 106.572C23.8644 107.106 23.9516 107.597 24.1261 108.044C24.3007 108.492 24.547 108.879 24.8653 109.206C25.1733 109.533 25.5428 109.79 25.974 109.975C26.4052 110.161 26.8825 110.253 27.4061 110.253C27.9297 110.253 28.407 110.161 28.8382 109.975C29.2694 109.79 29.6441 109.533 29.9623 109.206C30.2703 108.879 30.5116 108.492 30.6861 108.044C30.8606 107.597 30.9479 107.106 30.9479 106.572Z" fill="#7A7566"/>
<path d="M33.1037 93.8105C33.1037 94.5632 32.9959 95.245 32.7803 95.8559C32.5648 96.4559 32.2619 96.9687 31.8718 97.3941C31.4817 97.8196 31.0095 98.1469 30.4551 98.3759C29.8905 98.605 29.2591 98.7196 28.561 98.7196H22.0165L22.0165 96.265H28.561C29.3002 96.265 29.8853 96.0414 30.3165 95.5941C30.7374 95.1469 30.9479 94.5523 30.9479 93.8105C30.9479 93.0687 30.7374 92.4741 30.3165 92.0269C29.8853 91.5796 29.3002 91.3559 28.561 91.3559H22.0165L22.0165 88.9014H28.561C29.2591 88.9014 29.8905 89.016 30.4551 89.245C31.0095 89.4741 31.4817 89.8014 31.8718 90.2269C32.2619 90.6523 32.5648 91.1705 32.7803 91.7814C32.9959 92.3814 33.1037 93.0578 33.1037 93.8105Z" fill="#7A7566"/>
<path d="M22.0165 86.8604L22.0165 81.4604C22.0165 80.7623 22.114 80.135 22.3091 79.5786C22.4938 79.0223 22.7505 78.5532 23.079 78.1713C23.4075 77.7786 23.7925 77.4786 24.2339 77.2714C24.6651 77.0641 25.1322 76.9604 25.6352 76.9604C26.0561 76.9604 26.4411 77.0313 26.7902 77.1732C27.1392 77.3041 27.4523 77.4895 27.7295 77.7295C27.9964 77.9586 28.2325 78.2313 28.4378 78.5477C28.6432 78.8641 28.8125 79.2077 28.946 79.5786L32.7957 76.9604V79.7423L29.254 82.115V84.4059H32.7957L32.7957 86.8604H22.0165ZM27.0981 81.5423C27.0981 80.8441 26.9647 80.3313 26.6978 80.0041C26.4206 79.6659 26.0664 79.4968 25.6352 79.4968C25.2041 79.4968 24.855 79.6659 24.5881 80.0041C24.3109 80.3313 24.1723 80.8441 24.1723 81.5423L24.1723 84.4059H27.0981V81.5423Z" fill="#7A7566"/>
<path d="M22.0165 70.7365L22.0165 65.4183C22.0165 64.7202 22.1191 64.0929 22.3245 63.5365C22.5195 62.9692 22.7864 62.4893 23.1252 62.0965C23.464 61.6929 23.8644 61.382 24.3263 61.1638C24.778 60.9456 25.2657 60.8365 25.7892 60.8365C26.3128 60.8365 26.8055 60.9456 27.2675 61.1638C27.7192 61.382 28.1145 61.6929 28.4532 62.0965C28.792 62.4893 29.0641 62.9692 29.2694 63.5365C29.4644 64.0929 29.562 64.7202 29.562 65.4183V68.282H32.7957V70.7365H22.0165ZM27.4061 65.5002C27.4061 64.802 27.2521 64.2729 26.9441 63.9129C26.6362 63.5529 26.2512 63.3729 25.7892 63.3729C25.3273 63.3729 24.9423 63.5529 24.6343 63.9129C24.3263 64.2729 24.1723 64.802 24.1723 65.5002V68.282H27.4061L27.4061 65.5002Z" fill="#7A7566"/>
<path d="M22.0165 57.5529L22.0165 52.3984L32.7957 49.3711V51.9075L30.4089 52.562V57.3893L32.7957 58.0438V60.5802L22.0165 57.5529ZM28.253 53.1348L24.1723 54.2802V55.6711L28.253 56.8166V53.1348Z" fill="#7A7566"/>
<path d="M33.1037 43.7206C33.1037 44.2878 33.0473 44.7951 32.9343 45.2424C32.8317 45.6897 32.6982 46.0878 32.534 46.4369C32.3594 46.786 32.1644 47.0915 31.9488 47.3533C31.7229 47.6042 31.492 47.8169 31.2558 47.9915C30.7117 48.4169 30.0958 48.7115 29.408 48.8751V46.3387C29.716 46.2406 29.988 46.0824 30.2241 45.8642C30.4294 45.6787 30.6142 45.4169 30.7785 45.0787C30.9427 44.7297 31.0249 44.2769 31.0249 43.7206C31.0249 42.946 30.9068 42.4006 30.6707 42.0842C30.4346 41.7569 30.142 41.5933 29.7929 41.5933C29.4644 41.5933 29.2078 41.7624 29.023 42.1006C28.8382 42.4278 28.6791 42.8478 28.5456 43.3606C28.4019 43.8624 28.2633 44.4078 28.1299 44.9969C27.9861 45.5751 27.7962 46.1206 27.5601 46.6333C27.3137 47.1351 26.9955 47.5551 26.6054 47.8933C26.205 48.2206 25.6763 48.3842 25.0193 48.3842C24.5778 48.3842 24.1569 48.286 23.7566 48.0897C23.3562 47.8824 23.0071 47.5933 22.7094 47.2224C22.4014 46.8406 22.1602 46.3769 21.9857 45.8315C21.8009 45.286 21.7085 44.6642 21.7085 43.966C21.7085 43.4315 21.7598 42.9569 21.8625 42.5424C21.9549 42.1278 22.0781 41.7624 22.2321 41.446C22.3861 41.1188 22.5657 40.8406 22.771 40.6115C22.9661 40.3715 23.1663 40.1697 23.3716 40.006C23.8643 39.6242 24.4136 39.3624 25.0193 39.2206V41.7569C24.7934 41.8224 24.5881 41.9478 24.4033 42.1333C24.2493 42.286 24.1107 42.5097 23.9875 42.8042C23.8541 43.0878 23.7874 43.4751 23.7874 43.966C23.7874 44.6206 23.9054 45.1006 24.1415 45.406C24.3674 45.7006 24.6343 45.8478 24.9423 45.8478C25.1887 45.8478 25.394 45.7497 25.5582 45.5533C25.7225 45.3569 25.8662 45.1006 25.9894 44.7842C26.1023 44.4678 26.205 44.1078 26.2974 43.7042C26.3898 43.2897 26.4924 42.8751 26.6054 42.4606C26.7183 42.0351 26.8517 41.6206 27.0057 41.2169C27.1597 40.8024 27.3548 40.4369 27.5909 40.1206C27.827 39.8042 28.1196 39.5478 28.4686 39.3515C28.8074 39.1551 29.2232 39.0569 29.716 39.0569C30.1677 39.0569 30.5988 39.1551 31.0095 39.3515C31.4201 39.5478 31.7794 39.8424 32.0874 40.2351C32.3954 40.6278 32.6418 41.1188 32.8265 41.7078C33.0113 42.286 33.1037 42.9569 33.1037 43.7206Z" fill="#7A7566"/>
<path d="M33.1037 32.918C33.1037 33.4853 33.0473 33.9926 32.9343 34.4398C32.8317 34.8871 32.6982 35.2853 32.534 35.6344C32.3594 35.9835 32.1644 36.2889 31.9488 36.5507C31.7229 36.8017 31.492 37.0144 31.2558 37.1889C30.7117 37.6144 30.0958 37.9089 29.408 38.0726V35.5362C29.716 35.438 29.988 35.2798 30.2241 35.0617C30.4294 34.8762 30.6142 34.6144 30.7785 34.2762C30.9427 33.9271 31.0249 33.4744 31.0249 32.918C31.0249 32.1435 30.9068 31.598 30.6707 31.2817C30.4346 30.9544 30.142 30.7908 29.7929 30.7908C29.4644 30.7908 29.2078 30.9598 29.023 31.298C28.8382 31.6253 28.6791 32.0453 28.5456 32.558C28.4019 33.0598 28.2633 33.6053 28.1299 34.1944C27.9861 34.7726 27.7962 35.318 27.5601 35.8307C27.3137 36.3326 26.9955 36.7526 26.6054 37.0907C26.205 37.418 25.6763 37.5817 25.0193 37.5817C24.5778 37.5817 24.1569 37.4835 23.7566 37.2871C23.3562 37.0798 23.0071 36.7907 22.7094 36.4198C22.4014 36.038 22.1602 35.5744 21.9857 35.0289C21.8009 34.4835 21.7085 33.8617 21.7085 33.1635C21.7085 32.6289 21.7598 32.1544 21.8625 31.7398C21.9549 31.3253 22.0781 30.9598 22.2321 30.6435C22.386 30.3162 22.5657 30.038 22.771 29.8089C22.9661 29.5689 23.1663 29.3671 23.3716 29.2035C23.8643 28.8217 24.4136 28.5598 25.0193 28.418V30.9544C24.7934 31.0198 24.5881 31.1453 24.4033 31.3308C24.2493 31.4835 24.1107 31.7071 23.9875 32.0017C23.8541 32.2853 23.7874 32.6726 23.7874 33.1635C23.7874 33.818 23.9054 34.298 24.1415 34.6035C24.3674 34.898 24.6343 35.0453 24.9423 35.0453C25.1887 35.0453 25.394 34.9471 25.5582 34.7507C25.7225 34.5544 25.8662 34.298 25.9894 33.9817C26.1023 33.6653 26.205 33.3053 26.2974 32.9017C26.3898 32.4871 26.4924 32.0726 26.6054 31.658C26.7183 31.2326 26.8517 30.818 27.0057 30.4144C27.1597 29.9998 27.3548 29.6344 27.5909 29.318C27.827 29.0017 28.1196 28.7453 28.4686 28.5489C28.8074 28.3526 29.2232 28.2544 29.7159 28.2544C30.1677 28.2544 30.5988 28.3526 31.0095 28.5489C31.4201 28.7453 31.7794 29.0398 32.0874 29.4326C32.3954 29.8253 32.6417 30.3162 32.8265 30.9053C33.0113 31.4835 33.1037 32.1544 33.1037 32.918Z" fill="#7A7566"/>
<path d="M219.387 123.023L219.387 117.623C219.387 116.925 219.484 116.298 219.679 115.742C219.864 115.185 220.121 114.716 220.449 114.334C220.778 113.942 221.163 113.642 221.604 113.434C222.035 113.227 222.502 113.123 223.005 113.123C223.426 113.123 223.811 113.194 224.16 113.336C224.509 113.467 224.822 113.653 225.1 113.893C225.367 114.122 225.603 114.394 225.808 114.711C226.013 115.027 226.183 115.371 226.316 115.742L230.166 113.123V115.905L226.624 118.278V120.569H230.166L230.166 123.023H219.387ZM224.468 117.705C224.468 117.007 224.335 116.494 224.068 116.167C223.791 115.829 223.437 115.66 223.005 115.66C222.574 115.66 222.225 115.829 221.958 116.167C221.681 116.494 221.542 117.007 221.542 117.705V120.569H224.468V117.705Z" fill="#C7BFAB"/>
<path d="M219.387 109.44L219.387 104.286L230.166 101.259V103.795L227.779 104.449V109.277L230.166 109.931V112.468L219.387 109.44ZM225.623 105.022L221.542 106.168V107.559L225.623 108.704L225.623 105.022Z" fill="#C7BFAB"/>
<path d="M219.387 100.108L219.387 94.708C219.387 94.0098 219.484 93.3825 219.679 92.8262C219.864 92.2698 220.121 91.8007 220.449 91.4189C220.778 91.0262 221.163 90.7262 221.604 90.5189C222.035 90.3116 222.502 90.208 223.005 90.208C223.426 90.208 223.811 90.2789 224.16 90.4207C224.509 90.5516 224.822 90.7371 225.1 90.9771C225.367 91.2062 225.603 91.4789 225.808 91.7953C226.013 92.1116 226.183 92.4552 226.316 92.8262L230.166 90.208V92.9898L226.624 95.3625V97.6534H230.166V100.108H219.387ZM224.468 94.7898C224.468 94.0916 224.335 93.5789 224.068 93.2516C223.791 92.9134 223.437 92.7443 223.005 92.7443C222.574 92.7443 222.225 92.9134 221.958 93.2516C221.681 93.5789 221.542 94.0916 221.542 94.7898V97.6534H224.468V94.7898Z" fill="#C7BFAB"/>
<path d="M219.387 88.5703L219.387 79.9794H221.542L221.542 86.1158H223.698L223.698 81.2067L225.7 81.2067V86.1158H228.01V79.9794L230.166 79.9794V88.5703H219.387Z" fill="#C7BFAB"/>
<path d="M230.474 67.8678C230.474 68.7842 230.33 69.6296 230.043 70.4042C229.745 71.1787 229.345 71.8442 228.842 72.4005C228.328 72.9569 227.728 73.3933 227.04 73.7096C226.342 74.0151 225.587 74.1678 224.776 74.1678C223.965 74.1678 223.216 74.0151 222.528 73.7096C221.83 73.3933 221.229 72.9569 220.726 72.4005C220.213 71.8442 219.813 71.1787 219.525 70.4042C219.227 69.6296 219.079 68.7842 219.079 67.8678C219.079 67.2569 219.14 66.706 219.263 66.2151C219.376 65.7133 219.53 65.2715 219.725 64.8896C219.92 64.4969 220.141 64.1587 220.388 63.8751C220.624 63.5805 220.87 63.3296 221.127 63.1224C221.722 62.6315 222.4 62.2769 223.159 62.0587V64.5951C222.8 64.7478 222.482 64.966 222.205 65.2496C221.968 65.5005 221.748 65.8387 221.542 66.2642C221.337 66.6787 221.234 67.2133 221.234 67.8678C221.234 68.4024 221.322 68.8933 221.496 69.3405C221.671 69.7878 221.917 70.1751 222.235 70.5024C222.543 70.8296 222.913 71.086 223.344 71.2714C223.775 71.4569 224.253 71.5496 224.776 71.5496C225.32 71.5496 225.813 71.4624 226.255 71.2878C226.686 71.1133 227.055 70.8678 227.363 70.5514C227.671 70.2242 227.907 69.8369 228.072 69.3896C228.236 68.9314 228.318 68.4242 228.318 67.8678C228.318 67.1915 228.205 66.6405 227.979 66.2151C227.753 65.7787 227.507 65.4351 227.24 65.1842C226.922 64.8896 226.563 64.666 226.162 64.5133V61.9769C226.963 62.2169 227.681 62.5933 228.318 63.106C228.585 63.3242 228.852 63.5805 229.119 63.8751C229.375 64.1696 229.606 64.5133 229.812 64.906C230.007 65.2987 230.166 65.7405 230.289 66.2315C230.412 66.7224 230.474 67.2678 230.474 67.8678Z" fill="#C7BFAB"/>
<path d="M219.387 60.4294L219.387 57.9749H228.01V52.3294H230.166V60.4294H219.387Z" fill="#C7BFAB"/>
<path d="M230.474 46.2698C230.474 47.0225 230.366 47.7043 230.15 48.3152C229.935 48.9152 229.632 49.4279 229.242 49.8534C228.852 50.2788 228.38 50.6061 227.825 50.8352C227.261 51.0643 226.629 51.1788 225.931 51.1788H219.387L219.387 48.7243H225.931C226.67 48.7243 227.255 48.5007 227.687 48.0534C228.108 47.6061 228.318 47.0116 228.318 46.2698C228.318 45.5279 228.108 44.9334 227.687 44.4861C227.255 44.0389 226.67 43.8152 225.931 43.8152H219.387L219.387 41.3607L225.931 41.3607C226.629 41.3607 227.261 41.4752 227.825 41.7043C228.38 41.9334 228.852 42.2607 229.242 42.6861C229.632 43.1116 229.935 43.6298 230.15 44.2407C230.366 44.8407 230.474 45.517 230.474 46.2698Z" fill="#C7BFAB"/>
<path d="M219.387 39.3197L219.387 33.4288C219.387 32.8397 219.458 32.3161 219.602 31.8579C219.746 31.3997 219.946 31.0179 220.203 30.7124C220.449 30.3961 220.742 30.1561 221.08 29.9924C221.419 29.8288 221.779 29.747 222.158 29.747C222.62 29.747 223 29.8452 223.298 30.0415C223.585 30.227 223.811 30.4288 223.975 30.647C224.16 30.9197 224.299 31.2197 224.391 31.547H224.468C224.55 31.1433 224.694 30.7779 224.899 30.4506C225.074 30.167 225.331 29.9106 225.669 29.6815C226.008 29.4524 226.455 29.3379 227.009 29.3379C227.451 29.3379 227.866 29.4306 228.256 29.6161C228.636 29.7906 228.97 30.0579 229.257 30.4179C229.534 30.767 229.755 31.2033 229.919 31.727C230.084 32.2397 230.166 32.8342 230.166 33.5106V39.3197L219.387 39.3197ZM228.087 33.6742C228.087 33.0524 227.969 32.5997 227.733 32.3161C227.497 32.0215 227.204 31.8743 226.855 31.8743C226.506 31.8743 226.213 32.0215 225.977 32.3161C225.741 32.5997 225.623 33.0524 225.623 33.6742V36.8652H228.087V33.6742ZM223.621 33.7561C223.621 33.2652 223.519 32.8997 223.313 32.6597C223.108 32.4088 222.851 32.2833 222.543 32.2833C222.235 32.2833 221.979 32.4088 221.773 32.6597C221.568 32.8997 221.465 33.2652 221.465 33.7561L221.465 36.8652L223.621 36.8652L223.621 33.7561Z" fill="#C7BFAB"/>
<rect x="1664.76" y="0.182617" width="96.9272" height="150.718" fill="#FFF6DF"/>
<rect x="1761.69" y="0.182617" width="12.7372" height="150.718" fill="#9747FF"/>
<path d="M1733.5 51.0928C1733.5 45.4737 1737.62 40.9149 1742.7 40.9149" stroke="#4E4E4E" stroke-width="2" stroke-miterlimit="10"/>
<path d="M1733.5 30.741C1733.5 36.3601 1737.62 40.9189 1742.7 40.9189M1689.88 40.9189L1740.59 40.9189" stroke="#4E4E4E" stroke-width="2" stroke-miterlimit="10"/>
<path d="M1733.5 85.7178C1733.5 80.0987 1737.62 75.5399 1742.7 75.5399" stroke="#4E4E4E" stroke-width="2" stroke-miterlimit="10"/>
<path d="M1733.5 65.366C1733.5 70.9851 1737.62 75.5439 1742.7 75.5439M1689.88 75.5439L1740.59 75.5439" stroke="#4E4E4E" stroke-width="2" stroke-miterlimit="10"/>
<path d="M1733.5 120.342C1733.5 114.723 1737.62 110.164 1742.7 110.164" stroke="#4E4E4E" stroke-width="2" stroke-miterlimit="10"/>
<path d="M1733.5 99.991C1733.5 105.61 1737.62 110.169 1742.7 110.169M1689.88 110.169L1740.59 110.169" stroke="#4E4E4E" stroke-width="2" stroke-miterlimit="10"/>
<rect x="244.978" y="0.182617" width="1419.78" height="150.718" fill="#9747FF"/>
<path d="M344.259 33.33C342.787 34.2278 341.936 35.734 341.936 37.4628L341.936 42.3227C341.514 42.3598 341.1 42.4637 340.693 42.6195C340.138 42.0334 339.495 41.5288 338.733 41.1207C338.185 40.8462 337.601 40.7052 336.987 40.7052C336.336 40.7052 335.714 40.861 335.167 41.1504L335.034 40.6978L334.997 40.6013C334.738 39.9262 334.353 39.3177 333.835 38.8058C333.487 38.457 333.088 38.1603 332.644 37.9302C332.082 37.6186 331.445 37.4554 330.802 37.4554C330.158 37.4554 329.47 37.6335 328.886 37.9673C328.309 38.3012 327.813 38.7835 327.465 39.3771C327.11 39.9781 326.925 40.6681 326.925 41.3656L326.925 55.2034C326.925 56.4202 327.169 57.5777 327.635 58.6536C327.177 59.3139 326.925 60.0708 326.925 60.8721L326.925 72.8476C326.925 74.2202 327.258 75.5187 327.872 76.7281C327.266 77.4181 326.925 78.3011 326.925 79.2731L326.925 92.9922C326.925 94.298 327.206 95.5446 327.754 96.7095C327.214 97.3995 326.925 98.2231 326.925 99.0912L326.925 111.067C326.925 112.662 327.34 114.161 328.168 115.519C328.989 116.876 330.114 117.945 331.512 118.687L337.024 121.603C338.252 122.248 339.635 122.204 340.826 121.484C342.025 120.764 342.713 119.547 342.713 118.153L342.713 115.719C342.713 114.302 342.343 112.966 341.61 111.749C340.878 110.525 339.872 109.575 338.607 108.908L335.884 107.476C336.506 106.778 336.846 105.903 336.846 104.968C336.846 104.574 336.787 104.174 336.668 103.803L336.543 103.38L337.031 103.639C338.252 104.278 339.642 104.24 340.834 103.521C341.647 103.031 342.217 102.311 342.505 101.466C342.69 101.963 342.912 102.452 343.194 102.92C344.015 104.285 345.154 105.353 346.56 106.088L352.042 108.982C353.27 109.62 354.653 109.575 355.837 108.863C357.035 108.143 357.723 106.926 357.723 105.532L357.723 90.8924C357.723 89.861 357.516 88.8742 357.109 87.9542C357.501 87.3457 357.723 86.626 357.723 85.8544L357.723 83.4207C357.723 82.4932 357.553 81.5806 357.228 80.7051C357.117 80.4157 356.983 80.1412 356.843 79.8666C357.405 79.1914 357.723 78.3382 357.723 77.3959L357.723 70.5994C357.723 69.5087 357.538 68.4476 357.168 67.4237C357.531 66.8301 357.723 66.1401 357.723 65.3981L357.723 61.5324C357.723 60.6272 357.494 59.7814 357.065 58.9949C357.486 58.3716 357.723 57.6297 357.723 56.8283L357.723 42.3969C357.723 40.9798 357.353 39.6442 356.621 38.4274C355.888 37.2105 354.882 36.2534 353.625 35.5856L349.001 33.1519C347.462 32.3654 345.746 32.4248 344.274 33.3226L344.259 33.33Z" fill="#151515" fill-opacity="0.3"/>
<path d="M329.87 99.0915C329.87 98.8763 329.944 98.676 330.084 98.4979C330.225 98.3198 330.395 98.2085 330.595 98.1714C330.794 98.1343 331.002 98.1492 331.216 98.2308C331.764 98.5053 332.119 98.9356 332.296 99.5218L333.85 104.664C333.976 105.057 333.872 105.391 333.547 105.658C333.221 105.925 332.873 105.962 332.503 105.769L332.156 105.584C331.83 105.421 331.519 105.428 331.216 105.613C330.92 105.799 330.765 106.066 330.765 106.422L330.765 106.808C330.765 106.942 330.772 107.075 330.794 107.209C330.817 107.342 330.846 107.461 330.898 107.58C330.942 107.698 331.002 107.81 331.068 107.914C331.135 108.025 331.209 108.129 331.29 108.218C331.371 108.314 331.46 108.403 331.564 108.485C331.667 108.566 331.771 108.641 331.882 108.707L337.231 111.512C338.008 111.92 338.622 112.506 339.08 113.263C339.539 114.02 339.761 114.836 339.761 115.712L339.761 118.145C339.761 118.502 339.605 118.769 339.302 118.954C338.999 119.14 338.688 119.147 338.37 118.984L332.881 116.075C331.956 115.586 331.224 114.888 330.676 113.99C330.129 113.093 329.862 112.113 329.862 111.06L329.862 99.084L329.87 99.0915Z" fill="#FFF6DF"/>
<path d="M329.87 79.273C329.87 78.9168 330.025 78.6497 330.328 78.4642C330.632 78.2787 330.942 78.2713 331.26 78.4345L338.51 82.2409C338.903 82.4486 339.213 82.738 339.443 83.109C339.665 83.4874 339.783 83.888 339.783 84.3258L339.783 88.1989C339.783 88.5551 339.628 88.8222 339.324 89.0077C339.021 89.1932 338.71 89.2006 338.392 89.0373L338.289 88.978L339.065 90.4916C339.539 91.4042 339.783 92.3762 339.783 93.4001L339.783 100.197C339.783 100.553 339.628 100.82 339.324 101.005C339.021 101.191 338.71 101.198 338.392 101.035L336.269 99.9073L335.966 99.744L333.043 98.2081C332.074 97.7036 331.305 96.9765 330.735 96.0416C330.166 95.0993 329.877 94.0828 329.877 92.9921L329.877 79.273L329.87 79.273ZM332.156 85.7652C331.83 85.5872 331.519 85.5946 331.216 85.7726C330.92 85.9581 330.765 86.2327 330.765 86.6037C330.765 87.6944 331.046 88.7109 331.616 89.6532C332.178 90.5955 332.955 91.3152 333.931 91.8197L338.155 94.0531C338.318 94.1347 338.481 94.1273 338.636 94.0308C338.792 93.9344 338.873 93.7934 338.873 93.6005C338.873 92.5766 338.644 91.612 338.178 90.7142C337.334 89.0744 336.099 87.8279 334.486 86.9672L332.156 85.7578L332.156 85.7652Z" fill="#FFF6DF"/>
<path d="M329.87 60.8648C329.87 60.6496 329.944 60.4493 330.084 60.2712C330.225 60.0932 330.395 59.9819 330.595 59.9448C330.794 59.9002 331.002 59.9225 331.216 60.0041C331.764 60.2786 332.119 60.709 332.296 61.2951L333.85 66.437C333.976 66.8303 333.872 67.1642 333.547 67.4313C333.221 67.6984 332.873 67.7355 332.503 67.5426L332.156 67.3571C331.83 67.1938 331.519 67.2013 331.216 67.3868C330.92 67.5723 330.765 67.8394 330.765 68.1955L330.765 68.5813C330.765 68.7149 330.772 68.8484 330.794 68.982C330.817 69.1081 330.846 69.2343 330.898 69.353C330.942 69.4717 331.002 69.583 331.068 69.6943C331.135 69.8056 331.209 69.9095 331.29 69.9985C331.371 70.095 331.46 70.184 331.564 70.2656C331.667 70.3472 331.771 70.4214 331.882 70.4882L337.231 73.2929C338.008 73.701 338.622 74.2871 339.08 75.0439C339.539 75.8007 339.761 76.6169 339.761 77.4924L339.761 79.9261C339.761 80.2823 339.605 80.5494 339.302 80.7349C338.999 80.9204 338.688 80.9278 338.37 80.7646L332.881 77.856C331.956 77.3663 331.224 76.6689 330.676 75.7711C330.129 74.8733 329.862 73.8939 329.862 72.8403L329.862 60.8648L329.87 60.8648Z" fill="#FFF6DF"/>
<path d="M329.87 41.3583C329.87 41.1802 329.914 41.017 330.003 40.8686C330.092 40.7202 330.21 40.6015 330.351 40.5199C330.491 40.4383 330.646 40.3937 330.809 40.3937C330.972 40.3937 331.12 40.4383 331.261 40.5199C331.453 40.6163 331.623 40.735 331.771 40.8909C331.986 41.106 332.156 41.3583 332.259 41.6477L334.442 48.919L336.276 55.0403L336.336 55.1813L337.497 55.7971C337.808 55.9604 338.118 55.9529 338.414 55.7675C338.71 55.582 338.866 55.3148 338.866 54.9587L338.866 52.0279C338.866 51.835 338.821 51.6495 338.725 51.4788C338.614 51.3008 338.474 51.1672 338.296 51.0708C338.022 50.9372 337.837 50.7146 337.741 50.4178L336.069 44.8678C335.973 44.5562 336.025 44.2743 336.225 44.0294C336.424 43.7846 336.676 43.6584 336.987 43.6584C337.135 43.6584 337.283 43.6955 337.416 43.7623C338.141 44.1481 338.71 44.6824 339.132 45.3798C339.554 46.0773 339.768 46.8341 339.768 47.6502L339.768 62.2894C339.768 62.6455 339.613 62.9127 339.31 63.0982C339.006 63.2837 338.696 63.2911 338.377 63.1278L332.903 60.2416C331.963 59.7519 331.224 59.0544 330.676 58.1566C330.129 57.2588 329.862 56.272 329.862 55.211L329.862 41.3731L329.87 41.3583ZM331.667 47.5835C331.46 47.4722 331.261 47.4796 331.068 47.6057C330.868 47.7319 330.772 47.9025 330.772 48.1399L330.772 48.8151C330.772 49.8836 331.046 50.863 331.586 51.7608C332.133 52.6586 332.873 53.356 333.813 53.8457L336.04 55.0106L334.797 50.8778C334.59 50.2101 334.257 49.6091 333.798 49.0674C333.332 48.5258 332.785 48.1103 332.141 47.8061L331.675 47.5835L331.667 47.5835Z" fill="#FFF6DF"/>
<path d="M344.873 84.6153C344.873 84.2592 345.028 83.9921 345.332 83.8066C345.635 83.6211 345.946 83.6137 346.264 83.7769C346.782 84.0514 347.129 84.4669 347.307 85.0234L348.861 90.1653C348.986 90.5734 348.883 90.9147 348.557 91.1818C348.232 91.4489 347.884 91.4786 347.514 91.2708L346.678 90.8405C346.471 90.7292 346.271 90.7366 346.079 90.8628C345.879 90.9889 345.783 91.1595 345.783 91.397L345.783 92.0722C345.783 93.1332 346.057 94.12 346.597 95.0178C347.144 95.9156 347.884 96.6131 348.824 97.1028L352.515 99.0467C352.826 99.21 353.137 99.2026 353.433 99.0171C353.728 98.8316 353.884 98.5645 353.884 98.2083L353.884 95.2775C353.884 94.8397 353.691 94.5207 353.314 94.3129C353.04 94.1794 352.855 93.9568 352.759 93.66L351.087 88.11C350.976 87.7168 351.087 87.3829 351.405 87.1158C351.724 86.8487 352.071 86.8116 352.434 87.0045C353.159 87.3903 353.728 87.9245 354.15 88.622C354.572 89.3195 354.786 90.0763 354.786 90.8924L354.786 105.532C354.786 105.888 354.631 106.155 354.328 106.34C354.024 106.526 353.714 106.533 353.396 106.37L347.928 103.484C346.989 102.994 346.249 102.297 345.702 101.399C345.154 100.501 344.888 99.5142 344.888 98.4532L344.888 84.6153L344.873 84.6153Z" fill="#FFF6DF"/>
<path d="M340.479 76.2013C340.479 75.4815 340.782 74.9325 341.389 74.5615C341.995 74.1905 342.617 74.1757 343.253 74.517L352.234 79.2434C352.752 79.503 353.203 79.8518 353.58 80.2895C353.965 80.7273 354.254 81.217 354.461 81.7512C354.668 82.2929 354.764 82.8494 354.764 83.4207L354.764 85.8543C354.764 86.2105 354.609 86.4776 354.305 86.6631C354.002 86.8486 353.691 86.856 353.373 86.6928L351.25 85.565L350.947 85.4017L344.866 82.2113L343.068 81.2689C342.905 81.1873 342.728 81.1428 342.535 81.1428C342.387 81.1428 342.239 81.1725 342.099 81.2244C341.958 81.2764 341.832 81.358 341.721 81.4619C341.61 81.5657 341.529 81.6919 341.463 81.8403C341.403 81.9887 341.374 82.1445 341.374 82.3077C341.374 82.3745 341.344 82.4413 341.292 82.4932C341.241 82.5451 341.174 82.5748 341.107 82.5748C341.07 82.5748 341.026 82.56 340.982 82.5377C340.641 82.3596 340.471 82.0777 340.471 81.6993L340.471 76.1938L340.479 76.2013Z" fill="#FFF6DF"/>
<path d="M344.873 56.487C344.873 56.257 344.947 56.0493 345.095 55.8712C345.243 55.6931 345.42 55.5892 345.628 55.5521C345.835 55.515 346.042 55.5521 346.264 55.6412L353.514 59.4475C353.906 59.6552 354.217 59.9446 354.446 60.3156C354.668 60.694 354.786 61.0947 354.786 61.5324L354.786 65.3981C354.786 65.7543 354.631 66.0214 354.328 66.2069C354.024 66.3924 353.714 66.3998 353.396 66.2366L353.292 66.1772L354.091 67.6908C354.557 68.6035 354.786 69.5754 354.786 70.5994L354.786 77.3959C354.786 77.752 354.631 78.0191 354.328 78.2046C354.024 78.3901 353.714 78.3975 353.396 78.2343L351.272 77.1065L350.969 76.9432L346.027 74.3463C345.672 74.1683 345.391 73.9086 345.191 73.5673C344.984 73.226 344.888 72.855 344.888 72.4617L344.888 68.4922C344.888 68.136 345.043 67.8689 345.347 67.6834C345.65 67.4979 345.961 67.4905 346.279 67.6537L353.181 71.2597C353.344 71.3413 353.507 71.3339 353.662 71.2375C353.817 71.141 353.899 71 353.899 70.8071C353.899 69.8129 353.684 68.8706 353.248 67.9802L353.211 67.8986C352.367 66.2737 351.132 65.0346 349.519 64.1739L346.049 62.3486C345.694 62.1557 345.413 61.896 345.213 61.5621C345.006 61.2282 344.91 60.8647 344.91 60.464L344.91 56.4722L344.873 56.487Z" fill="#FFF6DF"/>
<path d="M344.873 37.4628C344.873 36.7505 345.176 36.2163 345.783 35.8453C346.39 35.4744 347.011 35.4595 347.647 35.786L352.241 38.2048C353.018 38.6129 353.632 39.1991 354.091 39.9559C354.55 40.7127 354.771 41.5289 354.771 42.4044L354.771 56.8358C354.771 57.1919 354.616 57.4591 354.313 57.6445C354.009 57.83 353.699 57.8375 353.381 57.6742L351.257 56.5464L350.954 56.3832L344.873 53.1927L343.075 52.2504C342.912 52.1688 342.735 52.1243 342.543 52.1243C342.232 52.1243 341.958 52.2356 341.729 52.4507C341.499 52.6659 341.381 52.9478 341.381 53.2892C341.381 53.3559 341.351 53.4227 341.3 53.4746C341.248 53.5266 341.181 53.5563 341.115 53.5563C341.078 53.5563 341.033 53.5414 340.989 53.5117C340.649 53.3337 340.479 53.0517 340.479 52.6733L340.479 47.1679C340.479 46.4482 340.782 45.8991 341.388 45.5281C341.995 45.1571 342.617 45.1497 343.253 45.4836C343.689 45.7136 344.229 45.9955 344.866 46.322L344.866 37.4554L344.873 37.4628ZM348.528 43.1167C347.899 42.7902 347.285 42.8125 346.678 43.176C346.071 43.547 345.768 44.0813 345.768 44.7936L345.768 45.8397C345.768 46.0326 345.805 46.2181 345.872 46.4036C345.938 46.5891 346.042 46.7524 346.168 46.9082C346.293 47.0566 346.449 47.1753 346.626 47.2569L352.508 50.3509C352.818 50.5142 353.129 50.5067 353.425 50.3213C353.721 50.1358 353.876 49.8687 353.876 49.5125L353.876 48.7928C353.876 48.2066 353.773 47.6427 353.573 47.1011C353.366 46.5594 353.077 46.0772 352.693 45.6468C352.315 45.2165 351.864 44.8677 351.346 44.5932L348.528 43.1167Z" fill="#FFF6DF"/>
<line x1="274.96" y1="122.515" x2="305.059" y2="122.515" stroke="black" stroke-opacity="0.53" stroke-width="4"/>
<line x1="274.959" y1="77.9375" x2="305.058" y2="77.9375" stroke="black" stroke-opacity="0.53" stroke-width="4"/>
<line x1="274.96" y1="35.1318" x2="305.059" y2="35.1318" stroke="black" stroke-opacity="0.53" stroke-width="4"/>
<line x1="274.959" y1="119.187" x2="305.058" y2="119.187" stroke="black" stroke-opacity="0.53"/>
<line x1="274.96" y1="115.979" x2="305.059" y2="115.979" stroke="black" stroke-opacity="0.53" stroke-width="2"/>
<line x1="274.96" y1="110.694" x2="305.059" y2="110.694" stroke="black" stroke-opacity="0.53"/>
<line x1="274.96" y1="29.4546" x2="305.059" y2="29.4546" stroke="black" stroke-opacity="0.53"/>
<line x1="274.96" y1="90.0718" x2="305.059" y2="90.0718" stroke="black" stroke-opacity="0.53"/>
<line x1="274.96" y1="58.8262" x2="305.059" y2="58.8262" stroke="black" stroke-opacity="0.53"/>
<line x1="274.959" y1="70.9077" x2="305.058" y2="70.9077" stroke="black" stroke-opacity="0.53"/>
<line x1="274.96" y1="87.5723" x2="305.059" y2="87.5723" stroke="black" stroke-opacity="0.53"/>
<line x1="274.96" y1="94.8628" x2="305.059" y2="94.8628" stroke="black" stroke-opacity="0.53"/>
<line x1="274.96" y1="67.3667" x2="305.059" y2="67.3667" stroke="black" stroke-opacity="0.53"/>
<line x1="274.959" y1="107.444" x2="305.058" y2="107.444" stroke="black" stroke-opacity="0.53" stroke-width="2.5"/>
<line x1="274.96" y1="63.4917" x2="305.059" y2="63.4917" stroke="black" stroke-opacity="0.53" stroke-width="2.5"/>
<line x1="274.96" y1="51.4102" x2="305.059" y2="51.4102" stroke="black" stroke-opacity="0.53" stroke-width="2.5"/>
<line x1="274.96" y1="103.07" x2="305.059" y2="103.07" stroke="black" stroke-opacity="0.53" stroke-width="2.5"/>
<line x1="274.96" y1="42.4531" x2="305.059" y2="42.4531" stroke="black" stroke-opacity="0.53" stroke-width="2.5"/>
<line x1="274.959" y1="73.6987" x2="305.058" y2="73.6987" stroke="black" stroke-opacity="0.53" stroke-width="2.5"/>
<line x1="274.96" y1="82.8643" x2="305.059" y2="82.8643" stroke="black" stroke-opacity="0.53" stroke-width="2.5"/>
<line x1="274.96" y1="39.1201" x2="305.059" y2="39.1201" stroke="black" stroke-opacity="0.53" stroke-width="2.5"/>
<line x1="274.96" y1="56.4092" x2="305.059" y2="56.4092" stroke="black" stroke-opacity="0.53" stroke-width="2.5"/>
<line x1="274.959" y1="98.1958" x2="305.058" y2="98.1958" stroke="black" stroke-opacity="0.53" stroke-width="3.5"/>
<line x1="274.96" y1="113.396" x2="305.059" y2="113.396" stroke="black" stroke-opacity="0.53" stroke-width="0.5"/>
<line x1="274.96" y1="49.2378" x2="305.059" y2="49.2378" stroke="black" stroke-opacity="0.53" stroke-width="0.5"/>
<line x1="274.96" y1="47.7852" x2="305.059" y2="47.7852" stroke="black" stroke-opacity="0.53" stroke-width="0.5"/>
<line x1="274.959" y1="45.4937" x2="305.058" y2="45.4937" stroke="black" stroke-opacity="0.53" stroke-width="0.5"/>
<line x1="274.96" y1="60.9028" x2="305.059" y2="60.9028" stroke="black" stroke-opacity="0.53" stroke-width="0.5"/>
<line x1="274.96" y1="69.2349" x2="305.059" y2="69.2349" stroke="black" stroke-opacity="0.53" stroke-width="0.5"/>
<line x1="274.96" y1="31.7397" x2="305.059" y2="31.7397" stroke="black" stroke-opacity="0.53" stroke-width="0.5"/>
<line x1="274.96" y1="93.1899" x2="305.059" y2="93.1899" stroke="black" stroke-opacity="0.53" stroke-width="0.5"/>
<line x1="274.96" y1="91.9404" x2="305.059" y2="91.9404" stroke="black" stroke-opacity="0.53" stroke-width="0.5"/>
<line x1="274.96" y1="85.6909" x2="305.059" y2="85.6909" stroke="black" stroke-opacity="0.53" stroke-width="0.5"/>
<line x1="274.96" y1="54.0288" x2="305.059" y2="54.0288" stroke="black" stroke-opacity="0.53" stroke-width="0.5"/>
<mask id="mask0_1_514" style="mask-type:alpha" maskUnits="userSpaceOnUse" x="244" y="0" width="1349" height="151">
<rect x="244.978" y="0.182617" width="1347.79" height="150.718" fill="#9747FF"/>
</mask>
<g mask="url(#mask0_1_514)">
<path fill-rule="evenodd" clip-rule="evenodd" d="M1441.87 -82.2822L1450.85 -82.2822V-22.439L1472.3 -77.9779L1480.63 -74.5021L1458.7 -17.7058L1500.34 -60.9789L1506.69 -54.3793L1465.98 -12.0659L1518.93 -35.5782L1522.46 -26.9955L1468.3 -2.94906H1527.19V6.38426H1469.61L1523.05 28.6689L1519.71 37.3308L1465.05 14.5384L1506.69 57.8146L1500.34 64.4143L1459.63 22.103L1482.25 77.1284L1473.99 80.7956L1450.85 24.5141V85.7175H1441.87V25.8824L1420.43 81.4133L1412.09 77.9375L1434.02 21.1365L1392.38 64.4145L1386.03 57.8149L1426.74 15.5028L1373.79 39.0136L1370.26 30.4309L1424.42 6.38425H1365.53L1365.53 -2.94907H1423.11L1369.67 -25.2337L1373.01 -33.8956L1427.67 -11.1047L1386.03 -54.3795L1392.38 -60.9792L1433.1 -18.665L1410.47 -73.693L1418.73 -77.3601L1441.87 -21.084V-82.2822Z" fill="#FF5576"/>
<path d="M619.696 148.971C619.696 155.914 599.348 159.981 597.704 166.383C596.061 172.786 611.611 187.091 608.382 192.893C605.104 198.771 585.54 191.743 580.94 196.514C576.34 201.286 583.112 221.625 577.455 225.032C571.798 228.439 558.32 212.168 551.945 213.935C545.569 215.703 541.869 236.789 535.188 236.789C528.507 236.789 524.593 215.643 518.432 213.935C512.271 212.228 498.505 228.387 492.922 225.032C487.339 221.676 494.029 201.294 489.437 196.514C484.845 191.734 465.273 198.771 461.995 192.893C458.716 187.014 474.374 173.009 472.673 166.383C471.029 159.981 450.681 155.914 450.681 148.971C450.681 142.028 471.029 137.96 472.673 131.558C474.374 124.933 458.766 110.85 461.995 105.049C465.224 99.2477 484.837 106.199 489.437 101.427C494.037 96.6559 487.265 76.317 492.922 72.91C498.505 69.5545 512.057 85.7742 518.432 84.0063C524.593 82.2985 528.507 61.1528 535.188 61.1528C541.869 61.1528 545.784 82.2985 551.945 84.0063C558.105 85.7141 571.872 69.5545 577.455 72.91C583.037 76.2655 576.348 96.6474 580.94 101.427C585.531 106.199 605.104 99.1704 608.382 105.049C611.611 110.85 596.003 124.933 597.704 131.558C599.348 137.96 619.696 142.028 619.696 148.971Z" fill="#FF6AA7"/>
</g>
<path d="M427.822 50.3209H459.952V59.1409H437.272V69.8509H454.912V78.3559H437.272V94.4209H427.822V50.3209ZM465.597 50.3209H486.387C489.075 50.3209 491.49 50.7199 493.632 51.5179C495.774 52.2739 497.58 53.3239 499.05 54.6679C500.562 56.0119 501.717 57.5869 502.515 59.3929C503.313 61.1569 503.712 63.0679 503.712 65.1259C503.712 66.8479 503.439 68.4229 502.893 69.8509C502.389 71.2789 501.675 72.5599 500.751 73.6939C499.869 74.7859 498.819 75.7519 497.601 76.5919C496.383 77.4319 495.06 78.1249 493.632 78.6709L503.712 94.4209H493.002L483.867 79.9309H475.047V94.4209H465.597V50.3209ZM486.072 71.1109C488.76 71.1109 490.734 70.5649 491.994 69.4729C493.296 68.3389 493.947 66.8899 493.947 65.1259C493.947 63.3619 493.296 61.9339 491.994 60.8419C490.734 59.7079 488.76 59.1409 486.072 59.1409H475.047V71.1109H486.072ZM510.017 50.3209H543.092V59.1409H519.467V67.9609H538.367V76.1509H519.467V85.6009H543.092V94.4209H510.017V50.3209ZM549.7 50.3209H582.775V59.1409H559.15V67.9609H578.05V76.1509H559.15V85.6009H582.775V94.4209H549.7V50.3209ZM607.04 50.3209H623.105C626.633 50.3209 629.867 50.9089 632.807 52.0849C635.747 53.2189 638.267 54.7729 640.367 56.7469C642.509 58.7209 644.147 61.0519 645.281 63.7399C646.457 66.4279 647.045 69.3049 647.045 72.3709C647.045 75.4369 646.457 78.3139 645.281 81.0019C644.147 83.6899 642.509 86.0209 640.367 87.9949C638.267 89.9689 635.747 91.5439 632.807 92.7199C629.867 93.8539 626.633 94.4209 623.105 94.4209H607.04V50.3209ZM623.105 85.6009C625.289 85.6009 627.263 85.2859 629.027 84.6559C630.791 84.0259 632.282 83.1229 633.5 81.9469C634.718 80.7709 635.642 79.3849 636.272 77.7889C636.944 76.1509 637.28 74.3449 637.28 72.3709C637.28 70.3969 636.944 68.6119 636.272 67.0159C635.642 65.3779 634.718 63.9709 633.5 62.7949C632.282 61.6189 630.791 60.7159 629.027 60.0859C627.263 59.4559 625.289 59.1409 623.105 59.1409H616.49V85.6009H623.105ZM653.367 50.3209H674.157C676.845 50.3209 679.26 50.7199 681.402 51.5179C683.544 52.2739 685.35 53.3239 686.82 54.6679C688.332 56.0119 689.487 57.5869 690.285 59.3929C691.083 61.1569 691.482 63.0679 691.482 65.1259C691.482 66.8479 691.209 68.4229 690.663 69.8509C690.159 71.2789 689.445 72.5599 688.521 73.6939C687.639 74.7859 686.589 75.7519 685.371 76.5919C684.153 77.4319 682.83 78.1249 681.402 78.6709L691.482 94.4209H680.772L671.637 79.9309H662.817V94.4209H653.367V50.3209ZM673.842 71.1109C676.53 71.1109 678.504 70.5649 679.764 69.4729C681.066 68.3389 681.717 66.8899 681.717 65.1259C681.717 63.3619 681.066 61.9339 679.764 60.8419C678.504 59.7079 676.53 59.1409 673.842 59.1409H662.817V71.1109H673.842ZM697.787 50.3209H707.237V94.4209H697.787V50.3209ZM715.444 50.3209H727.729L745.054 81.5059H745.684L745.054 76.1509V50.3209H754.504V94.4209H742.219L724.894 63.2359H724.264L724.894 68.5909V94.4209H715.444V50.3209ZM762.694 50.3209H772.144V67.6459H778.444L790.414 50.3209H801.124L786.634 71.4259L802.069 94.4209H791.044L778.759 76.4659H772.144V94.4209H762.694V50.3209ZM821.24 95.6809C819.056 95.6809 817.103 95.4499 815.381 94.9879C813.659 94.5679 812.126 94.0219 810.782 93.3499C809.438 92.6359 808.262 91.8379 807.254 90.9559C806.288 90.0319 805.469 89.0869 804.797 88.1209C803.159 85.8949 802.025 83.3749 801.395 80.5609H811.16C811.538 81.8209 812.147 82.9339 812.987 83.8999C813.701 84.7399 814.709 85.4959 816.011 86.1679C817.355 86.8399 819.098 87.1759 821.24 87.1759C824.222 87.1759 826.322 86.6929 827.54 85.7269C828.8 84.7609 829.43 83.5639 829.43 82.1359C829.43 80.7919 828.779 79.7419 827.477 78.9859C826.217 78.2299 824.6 77.5789 822.626 77.0329C820.694 76.4449 818.594 75.8779 816.326 75.3319C814.1 74.7439 812 73.9669 810.026 73.0009C808.094 71.9929 806.477 70.6909 805.175 69.0949C803.915 67.4569 803.285 65.2939 803.285 62.6059C803.285 60.7999 803.663 59.0779 804.419 57.4399C805.217 55.8019 806.33 54.3739 807.758 53.1559C809.228 51.8959 811.013 50.9089 813.113 50.1949C815.213 49.4389 817.607 49.0609 820.295 49.0609C822.353 49.0609 824.18 49.2709 825.776 49.6909C827.372 50.0689 828.779 50.5729 829.997 51.2029C831.257 51.8329 832.328 52.5679 833.21 53.4079C834.134 54.2059 834.911 55.0249 835.541 55.8649C837.011 57.8809 838.019 60.1279 838.565 62.6059H828.8C828.548 61.6819 828.065 60.8419 827.351 60.0859C826.763 59.4559 825.902 58.8889 824.768 58.3849C823.676 57.8389 822.185 57.5659 820.295 57.5659C817.775 57.5659 815.927 58.0489 814.751 59.0149C813.617 59.9389 813.05 61.0309 813.05 62.2909C813.05 63.2989 813.428 64.1389 814.184 64.8109C814.94 65.4829 815.927 66.0709 817.145 66.5749C818.363 67.0369 819.749 67.4569 821.303 67.8349C822.899 68.2129 824.495 68.6329 826.091 69.0949C827.729 69.5569 829.325 70.1029 830.879 70.7329C832.475 71.3629 833.882 72.1609 835.1 73.1269C836.318 74.0929 837.305 75.2899 838.061 76.7179C838.817 78.1039 839.195 79.8049 839.195 81.8209C839.195 83.6689 838.817 85.4329 838.061 87.1129C837.305 88.7929 836.171 90.2629 834.659 91.5229C833.147 92.7829 831.257 93.7909 828.989 94.5469C826.763 95.3029 824.18 95.6809 821.24 95.6809ZM898.476 50.3209H930.606V59.1409H907.926V69.8509H925.566V78.3559H907.926V94.4209H898.476V50.3209ZM936.252 50.3209H957.042C959.73 50.3209 962.145 50.7199 964.287 51.5179C966.429 52.2739 968.235 53.3239 969.705 54.6679C971.217 56.0119 972.372 57.5869 973.17 59.3929C973.968 61.1569 974.367 63.0679 974.367 65.1259C974.367 66.8479 974.094 68.4229 973.548 69.8509C973.044 71.2789 972.33 72.5599 971.406 73.6939C970.524 74.7859 969.474 75.7519 968.256 76.5919C967.038 77.4319 965.715 78.1249 964.287 78.6709L974.367 94.4209H963.657L954.522 79.9309H945.702V94.4209H936.252V50.3209ZM956.727 71.1109C959.415 71.1109 961.389 70.5649 962.649 69.4729C963.951 68.3389 964.602 66.8899 964.602 65.1259C964.602 63.3619 963.951 61.9339 962.649 60.8419C961.389 59.7079 959.415 59.1409 956.727 59.1409H945.702V71.1109H956.727ZM980.672 50.3209H1013.75V59.1409H990.122V67.9609L1009.02 67.9609V76.1509H990.122V85.6009H1013.75V94.4209H980.672V50.3209ZM1020.35 50.3209H1053.43V59.1409H1029.8V67.9609H1048.7V76.1509H1029.8V85.6009H1053.43V94.4209H1020.35V50.3209ZM1077.69 50.3209H1109.82V59.1409H1087.14V69.8509H1104.78V78.3559H1087.14V94.4209H1077.69V50.3209ZM1136.6 95.6809C1133.12 95.6809 1129.91 95.0719 1126.97 93.8539C1124.03 92.6359 1121.46 90.9769 1119.28 88.8769C1117.1 86.7769 1115.39 84.3199 1114.18 81.5059C1112.96 78.6499 1112.35 75.6049 1112.35 72.3709C1112.35 69.1369 1112.96 66.1129 1114.18 63.2989C1115.39 60.4429 1117.1 57.9649 1119.28 55.8649C1121.46 53.7649 1124.03 52.1059 1126.97 50.8879C1129.91 49.6699 1133.12 49.0609 1136.6 49.0609C1140.05 49.0609 1143.24 49.6699 1146.18 50.8879C1149.16 52.1059 1151.75 53.7649 1153.93 55.8649C1156.11 57.9649 1157.81 60.4429 1159.03 63.2989C1160.25 66.1129 1160.86 69.1369 1160.86 72.3709C1160.86 75.6049 1160.25 78.6499 1159.03 81.5059C1157.81 84.3199 1156.11 86.7769 1153.93 88.8769C1151.75 90.9769 1149.16 92.6359 1146.18 93.8539C1143.24 95.0719 1140.05 95.6809 1136.6 95.6809ZM1136.6 86.8609C1138.66 86.8609 1140.55 86.5039 1142.27 85.7899C1144 85.0759 1145.49 84.0889 1146.75 82.8289C1148.01 81.5269 1148.99 79.9939 1149.71 78.2299C1150.42 76.4659 1150.78 74.5129 1150.78 72.3709C1150.78 70.2289 1150.42 68.2759 1149.71 66.5119C1148.99 64.7479 1148.01 63.2359 1146.75 61.9759C1145.49 60.6739 1144 59.6659 1142.27 58.9519C1140.55 58.2379 1138.66 57.8809 1136.6 57.8809C1134.55 57.8809 1132.66 58.2379 1130.93 58.9519C1129.21 59.6659 1127.72 60.6739 1126.46 61.9759C1125.2 63.2359 1124.21 64.7479 1123.5 66.5119C1122.79 68.2759 1122.43 70.2289 1122.43 72.3709C1122.43 74.5129 1122.79 76.4659 1123.5 78.2299C1124.21 79.9939 1125.2 81.5269 1126.46 82.8289C1127.72 84.0889 1129.21 85.0759 1130.93 85.7899C1132.66 86.5039 1134.55 86.8609 1136.6 86.8609ZM1189.51 95.6809C1186.03 95.6809 1182.82 95.0719 1179.88 93.8539C1176.94 92.6359 1174.37 90.9769 1172.19 88.8769C1170.01 86.7769 1168.3 84.3199 1167.09 81.5059C1165.87 78.6499 1165.26 75.6049 1165.26 72.3709C1165.26 69.1369 1165.87 66.1129 1167.09 63.2989C1168.3 60.4429 1170.01 57.9649 1172.19 55.8649C1174.37 53.7649 1176.94 52.1059 1179.88 50.8879C1182.82 49.6699 1186.03 49.0609 1189.51 49.0609C1192.96 49.0609 1196.15 49.6699 1199.09 50.8879C1202.07 52.1059 1204.66 53.7649 1206.84 55.8649C1209.02 57.9649 1210.72 60.4429 1211.94 63.2989C1213.16 66.1129 1213.77 69.1369 1213.77 72.3709C1213.77 75.6049 1213.16 78.6499 1211.94 81.5059C1210.72 84.3199 1209.02 86.7769 1206.84 88.8769C1204.66 90.9769 1202.07 92.6359 1199.09 93.8539C1196.15 95.0719 1192.96 95.6809 1189.51 95.6809ZM1189.51 86.8609C1191.57 86.8609 1193.46 86.5039 1195.18 85.7899C1196.91 85.0759 1198.4 84.0889 1199.66 82.8289C1200.92 81.5269 1201.9 79.9939 1202.62 78.2299C1203.33 76.4659 1203.69 74.5129 1203.69 72.3709C1203.69 70.2289 1203.33 68.2759 1202.62 66.5119C1201.9 64.7479 1200.92 63.2359 1199.66 61.9759C1198.4 60.6739 1196.91 59.6659 1195.18 58.9519C1193.46 58.2379 1191.57 57.8809 1189.51 57.8809C1187.46 57.8809 1185.57 58.2379 1183.84 58.9519C1182.12 59.6659 1180.63 60.6739 1179.37 61.9759C1178.11 63.2359 1177.12 64.7479 1176.41 66.5119C1175.7 68.2759 1175.34 70.2289 1175.34 72.3709C1175.34 74.5129 1175.7 76.4659 1176.41 78.2299C1177.12 79.9939 1178.11 81.5269 1179.37 82.8289C1180.63 84.0889 1182.12 85.0759 1183.84 85.7899C1185.57 86.5039 1187.46 86.8609 1189.51 86.8609ZM1220.06 50.3209H1236.12C1239.65 50.3209 1242.89 50.9089 1245.83 52.0849C1248.77 53.2189 1251.29 54.7729 1253.39 56.7469C1255.53 58.7209 1257.17 61.0519 1258.3 63.7399C1259.48 66.4279 1260.06 69.3049 1260.06 72.3709C1260.06 75.4369 1259.48 78.3139 1258.3 81.0019C1257.17 83.6899 1255.53 86.0209 1253.39 87.9949C1251.29 89.9689 1248.77 91.5439 1245.83 92.7199C1242.89 93.8539 1239.65 94.4209 1236.12 94.4209H1220.06V50.3209ZM1236.12 85.6009C1238.31 85.6009 1240.28 85.2859 1242.05 84.6559C1243.81 84.0259 1245.3 83.1229 1246.52 81.9469C1247.74 80.7709 1248.66 79.3849 1249.29 77.7889C1249.96 76.1509 1250.3 74.3449 1250.3 72.3709C1250.3 70.3969 1249.96 68.6119 1249.29 67.0159C1248.66 65.3779 1247.74 63.9709 1246.52 62.7949C1245.3 61.6189 1243.81 60.7159 1242.05 60.0859C1240.28 59.4559 1238.31 59.1409 1236.12 59.1409H1229.51V85.6009H1236.12ZM1319.36 50.3209H1352.43V59.1409H1328.81V67.9609H1347.71V76.1509H1328.81V85.6009H1352.43V94.4209H1319.36V50.3209ZM1355.58 50.3209H1365.34L1374.16 85.6009H1379.52L1388.34 50.3209H1398.1L1386.76 94.4209H1366.92L1355.58 50.3209ZM1402.85 50.3209H1435.92V59.1409H1412.3V67.9609H1431.2V76.1509H1412.3V85.6009H1435.92V94.4209H1402.85V50.3209ZM1442.53 50.3209H1454.81L1472.14 81.5059H1472.77L1472.14 76.1509V50.3209H1481.59V94.4209H1469.3L1451.98 63.2359H1451.35L1451.98 68.5909V94.4209H1442.53V50.3209ZM1500.49 59.1409H1486.31V50.3209H1524.11V59.1409H1509.94V94.4209H1500.49V59.1409ZM1546.17 95.6809C1543.99 95.6809 1542.03 95.4499 1540.31 94.9879C1538.59 94.5679 1537.06 94.0219 1535.71 93.3499C1534.37 92.6359 1533.19 91.8379 1532.18 90.9559C1531.22 90.0319 1530.4 89.0869 1529.73 88.1209C1528.09 85.8949 1526.96 83.3749 1526.33 80.5609H1536.09C1536.47 81.8209 1537.08 82.9339 1537.92 83.8999C1538.63 84.7399 1539.64 85.4959 1540.94 86.1679C1542.29 86.8399 1544.03 87.1759 1546.17 87.1759C1549.15 87.1759 1551.25 86.6929 1552.47 85.7269C1553.73 84.7609 1554.36 83.5639 1554.36 82.1359C1554.36 80.7919 1553.71 79.7419 1552.41 78.9859C1551.15 78.2299 1549.53 77.5789 1547.56 77.0329C1545.62 76.4449 1543.52 75.8779 1541.26 75.3319C1539.03 74.7439 1536.93 73.9669 1534.96 73.0009C1533.02 71.9929 1531.41 70.6909 1530.11 69.0949C1528.85 67.4569 1528.22 65.2939 1528.22 62.6059C1528.22 60.7999 1528.59 59.0779 1529.35 57.4399C1530.15 55.8019 1531.26 54.3739 1532.69 53.1559C1534.16 51.8959 1535.94 50.9089 1538.04 50.1949C1540.14 49.4389 1542.54 49.0609 1545.23 49.0609C1547.28 49.0609 1549.11 49.2709 1550.71 49.6909C1552.3 50.0689 1553.71 50.5729 1554.93 51.2029C1556.19 51.8329 1557.26 52.5679 1558.14 53.4079C1559.06 54.2059 1559.84 55.0249 1560.47 55.8649C1561.94 57.8809 1562.95 60.1279 1563.5 62.6059H1553.73C1553.48 61.6819 1553 60.8419 1552.28 60.0859C1551.69 59.4559 1550.83 58.8889 1549.7 58.3849C1548.61 57.8389 1547.12 57.5659 1545.23 57.5659C1542.71 57.5659 1540.86 58.0489 1539.68 59.0149C1538.55 59.9389 1537.98 61.0309 1537.98 62.2909C1537.98 63.2989 1538.36 64.1389 1539.11 64.8109C1539.87 65.4829 1540.86 66.0709 1542.08 66.5749C1543.29 67.0369 1544.68 67.4569 1546.23 67.8349C1547.83 68.2129 1549.43 68.6329 1551.02 69.0949C1552.66 69.5569 1554.26 70.1029 1555.81 70.7329C1557.41 71.3629 1558.81 72.1609 1560.03 73.1269C1561.25 74.0929 1562.24 75.2899 1562.99 76.7179C1563.75 78.1039 1564.13 79.8049 1564.13 81.8209C1564.13 83.6689 1563.75 85.4329 1562.99 87.1129C1562.24 88.7929 1561.1 90.2629 1559.59 91.5229C1558.08 92.7829 1556.19 93.7909 1553.92 94.5469C1551.69 95.3029 1549.11 95.6809 1546.17 95.6809Z" fill="white"/>
<path d="M1305.4 72.9679C1292.76 73.3796 1292.45 73.7131 1292.06 87.1497C1291.67 73.7165 1291.36 73.383 1278.71 72.9679C1291.35 72.5562 1291.67 72.2228 1292.06 58.7861C1292.45 72.2194 1292.76 72.5528 1305.4 72.9679Z" fill="white"/>
<path d="M412.434 73.8903C399.792 74.302 399.479 74.6355 399.088 88.0721C398.701 74.6389 398.387 74.3054 385.742 73.8903C398.384 73.4786 398.697 73.1451 399.088 59.7085C399.475 73.1417 399.789 73.4752 412.434 73.8903Z" fill="white"/>
<path d="M1623.24 72.8615C1610.6 73.2732 1610.29 73.6066 1609.9 87.0433C1609.51 73.61 1609.19 73.2766 1596.55 72.8615C1609.19 72.4498 1609.5 72.1163 1609.9 58.6797C1610.28 72.1129 1610.6 72.4464 1623.24 72.8615Z" fill="white"/>
</svg>
