<svg width="512" height="68" viewBox="0 0 512 68" fill="none" xmlns="http://www.w3.org/2000/svg">
<line x1="2.4812" y1="0.913086" x2="2.4812" y2="67.7042" stroke="white" stroke-opacity="0.4" stroke-width="4"/>
<line x1="140.392" y1="0.913086" x2="140.392" y2="67.7042" stroke="white" stroke-opacity="0.4" stroke-width="4"/>
<line x1="272.822" y1="0.913086" x2="272.822" y2="67.7042" stroke="white" stroke-opacity="0.4" stroke-width="4"/>
<line x1="421.689" y1="0.913086" x2="421.689" y2="67.7042" stroke="white" stroke-opacity="0.4" stroke-width="4"/>
<line x1="15.9198" y1="0.913086" x2="15.9198" y2="67.7042" stroke="white" stroke-opacity="0.4"/>
<line x1="24.7979" y1="0.913086" x2="24.7978" y2="67.7042" stroke="white" stroke-opacity="0.4" stroke-width="2"/>
<line x1="42.1931" y1="0.913086" x2="42.1931" y2="67.7042" stroke="white" stroke-opacity="0.4"/>
<line x1="293.526" y1="0.913086" x2="293.526" y2="67.7042" stroke="white" stroke-opacity="0.4"/>
<line x1="442.393" y1="0.913086" x2="442.393" y2="67.7042" stroke="white" stroke-opacity="0.4"/>
<line x1="105.993" y1="0.913086" x2="105.993" y2="67.7042" stroke="white" stroke-opacity="0.4"/>
<line x1="202.659" y1="0.913086" x2="202.659" y2="67.7042" stroke="white" stroke-opacity="0.4"/>
<line x1="351.526" y1="0.913086" x2="351.526" y2="67.7042" stroke="white" stroke-opacity="0.4"/>
<line x1="495.732" y1="0.913086" x2="495.732" y2="67.7042" stroke="white" stroke-opacity="0.4"/>
<line x1="165.282" y1="0.913086" x2="165.282" y2="67.7042" stroke="white" stroke-opacity="0.4"/>
<line x1="314.149" y1="0.913086" x2="314.149" y2="67.7042" stroke="white" stroke-opacity="0.4"/>
<line x1="458.355" y1="0.913086" x2="458.355" y2="67.7042" stroke="white" stroke-opacity="0.4"/>
<line x1="113.726" y1="0.913086" x2="113.726" y2="67.7042" stroke="white" stroke-opacity="0.4"/>
<line x1="91.1702" y1="0.913086" x2="91.1702" y2="67.7042" stroke="white" stroke-opacity="0.4"/>
<line x1="176.238" y1="0.913086" x2="176.238" y2="67.7042" stroke="white" stroke-opacity="0.4"/>
<line x1="325.104" y1="0.913086" x2="325.104" y2="67.7042" stroke="white" stroke-opacity="0.4"/>
<line x1="469.311" y1="0.913086" x2="469.311" y2="67.7042" stroke="white" stroke-opacity="0.4"/>
<line x1="50.6773" y1="0.913086" x2="50.6773" y2="67.7042" stroke="white" stroke-opacity="0.4" stroke-width="2.5"/>
<line x1="186.655" y1="0.913086" x2="186.655" y2="67.7042" stroke="white" stroke-opacity="0.4" stroke-width="2.5"/>
<line x1="335.521" y1="0.913086" x2="335.521" y2="67.7042" stroke="white" stroke-opacity="0.4" stroke-width="2.5"/>
<line x1="479.728" y1="0.913086" x2="479.728" y2="67.7042" stroke="white" stroke-opacity="0.4" stroke-width="2.5"/>
<line x1="224.032" y1="0.913086" x2="224.032" y2="67.7042" stroke="white" stroke-opacity="0.4" stroke-width="2.5"/>
<line x1="372.899" y1="0.913086" x2="372.899" y2="67.7042" stroke="white" stroke-opacity="0.4" stroke-width="2.5"/>
<line x1="64.2103" y1="0.913086" x2="64.2103" y2="67.7042" stroke="white" stroke-opacity="0.4" stroke-width="2.5"/>
<line x1="251.744" y1="0.913086" x2="251.744" y2="67.7042" stroke="white" stroke-opacity="0.4" stroke-width="2.5"/>
<line x1="400.611" y1="0.913086" x2="400.611" y2="67.7042" stroke="white" stroke-opacity="0.4" stroke-width="2.5"/>
<line x1="155.076" y1="0.913086" x2="155.076" y2="67.7042" stroke="white" stroke-opacity="0.4" stroke-width="2.5"/>
<line x1="303.943" y1="0.913086" x2="303.943" y2="67.7042" stroke="white" stroke-opacity="0.4" stroke-width="2.5"/>
<line x1="448.149" y1="0.913086" x2="448.149" y2="67.7042" stroke="white" stroke-opacity="0.4" stroke-width="2.5"/>
<line x1="126.721" y1="0.913086" x2="126.721" y2="67.7042" stroke="white" stroke-opacity="0.4" stroke-width="2.5"/>
<line x1="262.055" y1="0.913086" x2="262.055" y2="67.7042" stroke="white" stroke-opacity="0.4" stroke-width="2.5"/>
<line x1="410.922" y1="0.913086" x2="410.922" y2="67.7042" stroke="white" stroke-opacity="0.4" stroke-width="2.5"/>
<line x1="208.566" y1="0.913086" x2="208.566" y2="67.7042" stroke="white" stroke-opacity="0.4" stroke-width="2.5"/>
<line x1="357.432" y1="0.913086" x2="357.432" y2="67.7042" stroke="white" stroke-opacity="0.4" stroke-width="2.5"/>
<line x1="501.639" y1="0.913086" x2="501.639" y2="67.7042" stroke="white" stroke-opacity="0.4" stroke-width="2.5"/>
<line x1="78.2433" y1="0.913086" x2="78.2433" y2="67.7042" stroke="white" stroke-opacity="0.4" stroke-width="3.5"/>
<line x1="34.3578" y1="0.913086" x2="34.3578" y2="67.7042" stroke="white" stroke-opacity="0.4" stroke-width="0.5"/>
<line x1="232.846" y1="0.913086" x2="232.846" y2="67.7042" stroke="white" stroke-opacity="0.4" stroke-width="0.5"/>
<line x1="381.713" y1="0.913086" x2="381.713" y2="67.7042" stroke="white" stroke-opacity="0.4" stroke-width="0.5"/>
<line x1="237.34" y1="0.913086" x2="237.34" y2="67.7042" stroke="white" stroke-opacity="0.4" stroke-width="0.5"/>
<line x1="386.206" y1="0.913086" x2="386.206" y2="67.7042" stroke="white" stroke-opacity="0.4" stroke-width="0.5"/>
<line x1="244.431" y1="0.913086" x2="244.431" y2="67.7042" stroke="white" stroke-opacity="0.4" stroke-width="0.5"/>
<line x1="393.298" y1="0.913086" x2="393.298" y2="67.7042" stroke="white" stroke-opacity="0.4" stroke-width="0.5"/>
<line x1="196.758" y1="0.913086" x2="196.758" y2="67.7042" stroke="white" stroke-opacity="0.4" stroke-width="0.5"/>
<line x1="345.624" y1="0.913086" x2="345.624" y2="67.7042" stroke="white" stroke-opacity="0.4" stroke-width="0.5"/>
<line x1="489.831" y1="0.913086" x2="489.831" y2="67.7042" stroke="white" stroke-opacity="0.4" stroke-width="0.5"/>
<line x1="170.981" y1="0.913086" x2="170.981" y2="67.7042" stroke="white" stroke-opacity="0.4" stroke-width="0.5"/>
<line x1="319.847" y1="0.913086" x2="319.847" y2="67.7042" stroke="white" stroke-opacity="0.4" stroke-width="0.5"/>
<line x1="464.054" y1="0.913086" x2="464.054" y2="67.7042" stroke="white" stroke-opacity="0.4" stroke-width="0.5"/>
<line x1="286.98" y1="0.913086" x2="286.98" y2="67.7042" stroke="white" stroke-opacity="0.4" stroke-width="0.5"/>
<line x1="435.847" y1="0.913086" x2="435.847" y2="67.7042" stroke="white" stroke-opacity="0.4" stroke-width="0.5"/>
<line x1="96.8688" y1="0.913086" x2="96.8688" y2="67.7042" stroke="white" stroke-opacity="0.4" stroke-width="0.5"/>
<line x1="100.736" y1="0.913086" x2="100.736" y2="67.7042" stroke="white" stroke-opacity="0.4" stroke-width="0.5"/>
<line x1="120.07" y1="0.913086" x2="120.07" y2="67.7042" stroke="white" stroke-opacity="0.4" stroke-width="0.5"/>
<line x1="218.026" y1="0.913086" x2="218.026" y2="67.7042" stroke="white" stroke-opacity="0.4" stroke-width="0.5"/>
<line x1="366.892" y1="0.913086" x2="366.892" y2="67.7042" stroke="white" stroke-opacity="0.4" stroke-width="0.5"/>
<line x1="511.099" y1="0.913086" x2="511.099" y2="67.7042" stroke="white" stroke-opacity="0.4" stroke-width="0.5"/>
</svg>
