<svg width="58" height="31" viewBox="0 0 58 31" fill="none" xmlns="http://www.w3.org/2000/svg">
<g clip-path="url(#clip0_55_422)">
<path d="M23.0428 8.41705C22.4907 8.90614 22.1069 9.24797 21.6573 9.64766C19.9772 8.20669 18.1053 7.26007 15.8626 7.1917C11.8873 7.07337 8.32222 9.5977 7.20746 13.3526C6.08481 17.1417 7.64127 21.1938 11.0197 23.2737C14.3719 25.3353 18.7047 24.8751 21.5521 22.0642C26.0374 17.6308 30.4597 13.1317 34.9424 8.69578C39.0938 4.58849 45.1855 4.30976 49.4343 7.97529C53.7145 11.6724 54.2114 18.3119 50.5306 22.6348C46.8077 27.0076 40.1165 27.5414 35.7863 23.8181C35.6207 23.6761 35.413 23.584 35.0186 23.3395C35.6312 22.8162 36.044 22.4612 36.4804 22.0905C38.9361 24.2519 41.723 25.075 44.899 24.2072C48.451 23.2369 50.8987 20.2077 51.2116 16.4844C51.506 12.9871 49.5368 9.58455 46.3187 8.03577C43.0612 6.46596 39.1806 7.04971 36.583 9.61347C32.0635 14.0757 27.6176 18.609 23.098 23.0739C18.4997 27.6151 11.3878 27.3153 7.42305 22.4612C4.04459 18.3276 4.36272 12.2246 8.14869 8.45386C11.9688 4.6516 18.1421 4.39391 22.2593 7.86222C22.4592 8.03051 22.6826 8.16725 23.0428 8.41968V8.41705Z" fill="#FFD400"/>
<path d="M32.0294 26.4078C32.4317 25.9845 32.7813 25.6137 33.181 25.1956C35.5446 27.3939 38.1685 28.6482 41.2314 29.0084C48.3328 29.8472 54.7821 24.6093 55.7128 17.1967C56.5646 10.4099 51.3694 3.70733 44.5652 2.78963C40.0851 2.18748 36.2571 3.50486 33.0679 6.67341C28.6246 11.091 24.2156 15.5401 19.7697 19.955C17.9082 21.8036 15.3895 22.2874 13.1179 21.2356C10.8305 20.1759 9.63428 18.33 9.65006 15.8162C9.66583 13.3024 10.8936 11.4775 13.1889 10.4441C15.3685 9.46594 17.7031 9.91033 19.6172 11.6774C19.2754 12.0402 18.9336 12.4057 18.5313 12.8343C18.1843 12.6319 17.8635 12.4347 17.5323 12.2532C15.6603 11.2225 13.4019 11.7326 12.1556 13.468C10.9515 15.1457 11.175 17.4254 12.6841 18.8559C14.2274 20.3179 16.5884 20.4362 18.179 18.9874C19.796 17.5149 21.3025 15.9161 22.851 14.3673C25.9508 11.2724 29.0138 8.13804 32.153 5.08256C36.6409 0.720216 43.3479 -0.355251 48.9743 2.30318C54.5349 4.93005 58.0212 10.8412 57.5269 16.7944C56.9827 23.3339 52.8654 28.4615 46.729 30.2443C41.5601 31.7484 35.5998 30.2443 32.0294 26.4078Z" fill="#FFD400"/>
<path d="M38.4447 20.0156C38.8759 19.6028 39.2492 19.2452 39.5437 18.9638C40.3666 19.3162 41.0581 19.7369 41.8048 19.9026C43.6662 20.3154 45.5539 19.2846 46.34 17.5518C47.1235 15.8216 46.6108 13.7785 45.0938 12.5873C43.5899 11.4067 41.4919 11.3988 39.9985 12.6504C39.1625 13.3525 38.421 14.1676 37.6454 14.9407C33.7411 18.8403 29.8815 22.7871 25.9247 26.6341C21.3815 31.0543 14.6772 32.0851 9.00083 29.3583C3.26665 26.6052 0.0538309 20.7545 0.642761 14.1387C1.16596 8.28543 5.62237 3.05535 11.4801 1.42506C16.7174 -0.0343143 22.9169 1.60124 26.0614 5.36406C25.6802 5.68748 25.2911 6.02143 24.8283 6.41586C22.5646 4.35433 19.9223 3.03957 16.7989 2.70826C9.91052 1.972 3.3613 7.0706 2.44899 13.9257C1.49461 21.0885 6.26914 27.7464 13.197 28.8771C17.8085 29.6291 21.7654 28.2933 25.0649 25.0091C29.503 20.5915 33.9094 16.1398 38.3606 11.7327C40.2273 9.88417 42.4726 9.4319 44.8914 10.4548C47.2103 11.4329 48.4171 13.2867 48.4434 15.8058C48.4697 18.3301 47.2681 20.1603 44.9965 21.2331C42.8038 22.2691 40.4034 21.8247 38.45 20.0183L38.4447 20.0156Z" fill="#FFD400"/>
</g>
<defs>
<clipPath id="clip0_55_422">
<rect width="57" height="30" fill="white" transform="translate(0.574219 0.862305)"/>
</clipPath>
</defs>
</svg>
