<svg width="186" height="186" viewBox="0 0 186 186" fill="none" xmlns="http://www.w3.org/2000/svg">
<rect width="186" height="186" rx="93" fill="black"/>
<path d="M110.977 60.7881C111.99 60.7881 112.934 61.1501 113.772 61.8377C114.611 62.5254 115.135 63.3578 115.31 64.335C115.485 65.3122 115.415 66.3255 115.03 67.3751C113.737 70.0533 111.711 71.7905 108.95 72.6591L84.7327 80.2595C82.8806 80.8747 81.3081 80.3681 80.05 78.7756C78.792 77.1831 78.6173 75.4821 79.5259 73.6725L80.3995 71.9715C81.1683 70.379 81.1333 68.859 80.2597 67.3751C79.3861 65.9274 78.128 65.1674 76.4507 65.1674H74.6335C74.0045 65.1674 73.3755 65.2036 72.7464 65.3122C72.1174 65.4207 71.5583 65.5655 70.9992 65.8188C70.44 66.036 69.9159 66.3255 69.4266 66.6513C68.9024 66.977 68.4132 67.3389 67.9939 67.737C67.5396 68.1351 67.1202 68.5694 66.7358 69.0761C66.3514 69.5828 66.002 70.0895 65.6875 70.6324L52.4781 96.7992C50.5561 100.599 47.7954 103.603 44.2309 105.847C40.6665 108.091 36.8225 109.177 32.6989 109.177H21.2368C19.5595 109.177 18.3014 108.417 17.4278 106.933C16.5541 105.449 16.5192 103.929 17.288 102.373L30.9866 75.5183C33.293 70.9943 36.5779 67.4113 40.8063 64.7331C45.0347 62.0549 49.6475 60.752 54.6097 60.752L111.012 60.752L110.977 60.7881Z" fill="white"/>
<path d="M162.631 94.2422C164.308 94.2422 165.566 95.0022 166.44 96.4861C167.313 97.97 167.348 99.49 166.58 101.046C165.287 103.58 163.33 105.281 160.709 106.149L136.492 113.75C134.57 114.365 132.962 113.858 131.704 112.266C130.446 110.673 130.306 108.972 131.285 107.163L133.312 103.073C133.836 102.06 133.801 101.082 133.207 100.141C132.613 99.1643 131.809 98.6938 130.691 98.6938H127.511C122.513 98.6938 117.866 100.033 113.637 102.675C109.409 105.353 106.124 108.972 103.818 113.569L94.6619 131.629C93.8931 133.149 93.9281 134.669 94.8017 136.116C95.6754 137.564 96.9334 138.324 98.6108 138.324H112.414C114.476 138.324 115.979 137.383 116.957 135.537C117.586 134.198 118.634 133.293 120.032 132.823L146.171 124.644C148.024 124.101 149.596 124.644 150.854 126.2C152.112 127.756 152.287 129.457 151.378 131.23C149.561 134.777 147.045 137.564 143.76 139.627C140.475 141.69 136.911 142.74 133.067 142.74L64.1196 142.74C62.4423 142.74 61.1842 141.98 60.3106 140.496C59.437 139.012 59.402 137.492 60.1708 135.935L73.7646 109.19C76.071 104.593 79.3558 100.974 83.5842 98.2957C87.8126 95.6175 92.4604 94.3146 97.4576 94.3146L162.631 94.3146V94.2422Z" fill="white"/>
<path d="M171.119 66.3671C148.778 67.0518 148.223 67.6064 147.533 89.953C146.848 67.612 146.294 67.0575 123.947 66.3671C146.288 65.6824 146.843 65.1278 147.533 42.7812C148.218 65.1222 148.772 65.6767 171.119 66.3671Z" fill="#FFD400"/>
</svg>
